<svg height="119.06" viewBox="0 0 103.002 119.06" width="103.002" xmlns="http://www.w3.org/2000/svg" xmlns:xlink="http://www.w3.org/1999/xlink"><linearGradient id="a" gradientUnits="objectBoundingBox" x2="1" y1=".5" y2=".5"><stop offset=".006" stop-color="#dbaf55"/><stop offset=".568" stop-color="#f6efda"/><stop offset=".568" stop-color="#f5eed9"/><stop offset=".576" stop-color="#cebda5"/><stop offset=".585" stop-color="#ad9379"/><stop offset=".593" stop-color="#927055"/><stop offset=".602" stop-color="#7d5639"/><stop offset=".61" stop-color="#6e4324"/><stop offset=".619" stop-color="#643718"/><stop offset=".627" stop-color="#623415"/><stop offset=".642" stop-color="#693b17"/><stop offset=".665" stop-color="#7f4e1f"/><stop offset=".688" stop-color="#9b6729"/><stop offset=".712" stop-color="#885828"/><stop offset=".757" stop-color="#5c3526"/><stop offset=".771" stop-color="#71482c"/><stop offset=".797" stop-color="#916636"/><stop offset=".826" stop-color="#ab7f3e"/><stop offset=".856" stop-color="#c09345"/><stop offset=".891" stop-color="#cea049"/><stop offset=".933" stop-color="#d7a84c"/><stop offset="1" stop-color="#daab4d"/></linearGradient><g transform="translate(-6125.665 -461.08)"><path d="m6228.666 468.93v73.06a7.411 7.411 0 0 1 -3.27 6h-.01l-42.26 30.29a10.479 10.479 0 0 1 -11.92 0l-42.27-30.29a7.411 7.411 0 0 1 -3.27-6v-73.06a7.028 7.028 0 0 1 1.57-4.38 9.759 9.759 0 0 1 7.66-3.47h84.54c5.09 0 9.23 3.52 9.23 7.85z" fill="#2e2d2c"/><g fill="url(#a)"><path d="m6219.435 461.08h-84.535a9.754 9.754 0 0 0 -7.66 3.473 7.014 7.014 0 0 0 -1.572 4.377v73.06a7.416 7.416 0 0 0 3.276 6l42.269 30.29a10.49 10.49 0 0 0 11.913 0l42.268-30.29a7.418 7.418 0 0 0 3.275-6v-73.06c-.002-4.33-4.143-7.85-9.234-7.85zm6.594 80.91a4.82 4.82 0 0 1 -2.174 3.859l-42.269 30.29a7.891 7.891 0 0 1 -8.839 0l-42.269-30.29a4.818 4.818 0 0 1 -2.175-3.859v-73.06c0-2.873 2.958-5.211 6.594-5.211h84.538c3.636 0 6.594 2.338 6.594 5.211z"/><path d="m6219.435 464.661h-84.535c-3.063 0-5.651 1.955-5.651 4.269v73.06a3.893 3.893 0 0 0 1.78 3.093l42.27 30.29a6.958 6.958 0 0 0 7.741 0l42.269-30.29a3.894 3.894 0 0 0 1.781-3.093v-73.06c-.003-2.314-2.59-4.269-5.655-4.269zm4.9 77.329a3.156 3.156 0 0 1 -1.466 2.48l-42.269 30.29a6.207 6.207 0 0 1 -6.863 0l-42.269-30.29a3.154 3.154 0 0 1 -1.466-2.48v-73.06c0-1.9 2.242-3.515 4.9-3.515h84.538c2.655 0 4.9 1.61 4.9 3.515z"/></g></g></svg>