<svg height="105.22" viewBox="0 0 265.451 105.22" width="265.451" xmlns="http://www.w3.org/2000/svg"><g fill="#f7f7f8" transform="translate(-528.447 -4287.025)"><path d="m556.18 4321.948c5.423-.55 10.5-.733 15.482-1.338 5.084-.619 10.132-.954 15.446-1.542 4.826-.534 9.843-1.276 15.412-1.715 4.747-.375 9.781-1.88 15.421-2.141 4.764-.22 9.936.559 15.552.447 4.81-.1 9.958.2 15.527.2 4.452 0 9.077.1 13.852.2 4.522.1 9.16-.1 13.864.081 4.574.171 9.2.5 13.846.735 4.62.231 9.277-.018 13.878.261 4.666.283 9.225 1.612 13.776 1.932 4.718.332 9.41-.231 13.9.126 4.794.382 9.455.411 13.856.8 4.92.44 9.571.49 13.825.922a40.931 40.931 0 0 1 12.578 1.989c3.909 1.295 8.3 2.857 11.663 5.518 3.218 2.549 4.967 6.826 6.9 10.782a29.156 29.156 0 0 1 2.918 12.075 47.138 47.138 0 0 1 -2.33 15.7 22.208 22.208 0 0 1 -8.787 12.488c-3.66 2.593-8.2 4.337-14.587 5.739-4.1.526-8.63 1.379-13.71 1.851-4.35.405-8.955 1.293-13.823 1.652-4.475.331-9.066 1.634-13.827 1.921-4.558.275-9.247.008-13.936.24-4.625.228-9.277.63-13.906.812-4.689.185-9.384-.7-13.951-.57-4.766.14-9.421.368-13.912.448-4.876.087-9.539.223-13.912.234-4.71.011-9.442.136-14.181.059s-9.49.511-14.2.353c-4.756-.159-9.469-.929-14.153-1.165-4.781-.24-9.5-.691-14.15-1-4.809-.322-9.6.172-14.212-.218-4.845-.41-9.53-1.291-14.089-1.767-4.9-.51-9.329-2.468-13.81-3.043-6.126-1.628-11.86-1.593-15.709-4.117-5.2-3.4-7.734-8.515-9.814-12.957-2.33-4.976-4.426-10.3-4.426-15.668 0-4.761 3.57-8.974 5.988-13.321 2.32-4.172 3.793-9.541 7.734-12.47 3.858-2.861 9.152-3.659 14.007-4.533z"/><path d="m635.867 4302.093c-.208-1.87 1.62-3.384 2.909-4.45a14.671 14.671 0 0 1 5.418-2.7c5.432-1.6 8.535-.329 12.2-1.294a6.214 6.214 0 0 1 2.385-.205 6.348 6.348 0 0 1 2.521.886c3.5 2.014 5.766.941 7.432 2.8a6.277 6.277 0 0 1 -.07 7.672c-.393.412-.832.674-4.772 1.794-2.7.769-4.054 1.154-4.723 1.279a28.961 28.961 0 0 1 -10.985-.373c-2.69-.486-2.973-.829-5.81-1.217a9.951 9.951 0 0 1 -3.165-.684c-.478-.217-3.107-1.418-3.34-3.508z"/><path d="m674.55 4287.369a6.924 6.924 0 0 0 -4.137-.044c-1.806.371-3.377.694-3.927 1.964a2.491 2.491 0 0 0 .317 2.525c.372.417.863.561 3.782.55 3.446-.012 4.055-.218 4.6-.55.234-.142 1.829-1.113 1.716-2.355s-1.828-1.889-2.351-2.09z"/></g></svg>