<svg height="188.411" viewBox="0 0 473.46 188.411" width="473.46" xmlns="http://www.w3.org/2000/svg"><g fill="#f7f7f8" transform="translate(-1974.956 -2936.299)"><path d="m2400.153 2995.8c-9.658-.979-19.178 2.173-28.043 1.094-9.056-1.1-17.723-4.552-27.188-5.6-8.6-.951-17.824.58-27.742-.2-8.456-.667-17.3-5.419-27.347-5.884-8.488-.392-17.79 3.7-27.795 3.5-8.566-.17-17.706-2.158-27.622-2.157-7.931 0-16.156 1.927-24.661 2.111-8.054.175-16.285.352-24.664.666-8.147.305-16.4.249-24.68.664-8.229.412-16.509.116-24.7.614-8.31.5-16.679-.781-24.782-.211-8.4.591-16.739.206-24.732.842-8.54.68-16.6 3.7-24.441 4.4-8.763.784-17.083.623-24.662 1.391-6.839 0-13.967 3.327-21.548 5.837-6.962 2.306-13.991 4.566-19.972 9.3-5.731 4.541-12.527 9.062-15.975 16.109-3.031 6.2-4.293 14.113-4.575 22.441-.319 9.411.522 19.461 3.407 28.679 2.691 8.6 7.162 17.595 16.114 23.936 6.518 4.616 16.318 5.127 27.691 7.623 7.3.936 15.219 3.856 24.267 4.7 7.748.72 15.965 2.421 24.636 3.061 7.97.588 16.248 1.538 24.727 2.049 8.118.49 16.4 1.531 24.747 1.944 8.237.407 16.684-2.579 24.928-2.254 8.352.33 16.57 2.922 24.7 3.161 8.489.249 16.8.946 24.8 1.088 8.685.155 17.033-2.758 24.822-2.738 8.388.02 16.837 2.623 25.279 2.486s16.856-1.125 25.25-1.407c8.472-.284 16.987.962 25.33.543 8.517-.428 17-.574 25.283-1.129 8.565-.573 16.72-4.754 24.933-5.449 8.63-.73 17.2.341 25.323-.506 8.721-.91 17.528-.131 25.51-1.156 10.912-2.9 18.406-10.059 25.262-14.554 9.253-6.065 16.708-11.907 20.413-19.819a67.732 67.732 0 0 0 5.974-28.445c0-8.48-1.785-18.106-6.091-25.849a66.007 66.007 0 0 0 -17.671-19.98 61.184 61.184 0 0 0 -24.505-10.901z"/><path d="m2364.344 2963.137c.37-3.33-2.887-6.026-5.182-7.925a26.137 26.137 0 0 0 -9.65-4.807c-9.676-2.859-15.2-.588-21.726-2.306a11.056 11.056 0 0 0 -4.248-.365 11.327 11.327 0 0 0 -4.491 1.578c-6.233 3.587-10.27 1.676-13.236 4.986-3.139 3.5-2.951 10.45.124 13.666.7.733 1.481 1.2 8.5 3.195 4.814 1.369 7.221 2.054 8.413 2.276 7.831 1.464 14.488.256 19.566-.663 4.79-.866 5.295-1.476 10.347-2.168 2.544-.348 3.812-.384 5.639-1.219.846-.385 5.53-2.525 5.944-6.248z"/><path d="m2295.442 2936.911c2.7-1.036 5.1-.544 7.368-.077 3.218.661 6.016 1.235 6.995 3.5a4.439 4.439 0 0 1 -.565 4.5c-.662.742-1.536 1-6.735.98-6.139-.022-7.223-.388-8.194-.98-.416-.253-3.257-1.983-3.056-4.194.199-2.197 3.255-3.371 4.187-3.729z"/></g></svg>