<svg height="74.738" viewBox="0 0 262.306 74.738" width="262.306" xmlns="http://www.w3.org/2000/svg"><g fill="#f7f7f8" transform="translate(-243.113 -4291.778)"><path d="m444.02 4358.521c-5.284.941-10.177 1.419-14.68 2.146-5.35.862-10.221 1.339-14.7 1.941-5.372.721-10.165 1.469-14.7 1.89-5.233.485-9.986 1.781-14.742 1.981-4.895.206-9.736-.5-14.857-.465-4.616.033-9.471-.267-14.844-.267-5.123 0-9.87-.107-14.365-.236-5.105-.145-9.85-.086-14.366-.366-5.019-.312-9.722-.8-14.319-1.232-4.849-.456-9.59-.543-14.34-1.082-4.659-.528-9.266-1.937-14.192-2.493-4.533-.511-9.335-.263-14.386-.756-5.679-.97-10.244-2.26-13.785-4.324a23.182 23.182 0 0 1 -9.956-10.477 35.825 35.825 0 0 1 -2.669-14.378c0-4.84.815-9.407 2.989-12.776 2.206-3.417 6.408-5.379 10.561-7.572a53.773 53.773 0 0 1 11.974-4.412c4.743-.489 9.173-.283 13.328-.714 4.641-.482 8.976-1.12 13.255-1.522 4.447-.417 8.8-.6 13.288-.922 4.26-.3 8.6-.867 13.282-1.074 4.16-.184 8.537-.752 13.31-.853 4.14-.087 8.554-.974 13.34-.994 5.308-.022 10.259.4 14.932.4 5.291 0 10.232-.138 14.934-.087 5.209.058 10.111 1.03 14.9 1.174 5.047.151 9.946.258 14.9.535 4.856.272 9.755.54 14.885.962 4.718.388 9.631.713 14.87 1.253 5.811.811 10.653 1.688 14.327 3.595a22.5 22.5 0 0 1 10.02 10.65c2.078 4.293 2.641 9.185 2.641 14.354 0 4.84.236 8.98-1.091 12.332-1.439 3.637-4.308 6.488-8.38 9.056-2.884 1.82-6.684 3.147-11.364 4.733z"/><path d="m497.4 4303.637a5.32 5.32 0 0 1 .31 3.63c-.294.909-.986 1.616-2.633 2.607a22.405 22.405 0 0 1 -6.286 2.5c-3.464.885-6.328 1.59-10.146 1.295a24.607 24.607 0 0 1 -4.081-.682c-3.272-.829-5.029-1.254-6.181-2.8-1.571-2.109-1.673-5.864.058-7.672.511-.535 1.671-.962 3.969-1.794a31.5 31.5 0 0 1 3.929-1.278c3.367-.714 3.961.49 9.137.372a30.421 30.421 0 0 1 4.671-.032 11.424 11.424 0 0 1 4.109 1.019 5.9 5.9 0 0 1 3.144 2.835z"/><path d="m497.152 4296.774a6.924 6.924 0 0 0 4.137.044c1.807-.371 3.377-.694 3.927-1.963a2.493 2.493 0 0 0 -.317-2.526c-.372-.417-.862-.561-3.782-.55-3.446.012-4.055.218-4.6.55-.233.142-1.829 1.113-1.716 2.355s1.828 1.889 2.351 2.09z"/></g></svg>