<svg height="89.833" viewBox="0 0 293.728 89.833" width="293.728" xmlns="http://www.w3.org/2000/svg"><g fill="#f7f7f8" transform="translate(-2380.889 -4289.014)"><path d="m2638.84 4372.242c-4.873.684-9.926.923-15.036 1.529-4.9.582-9.915.835-15.023 1.331-4.92.478-9.9 1.15-15.008 1.537-4.937.374-9.883 1.87-14.993 2.147-4.951.268-10.023-.455-15.132-.287-4.962.163-9.991-.071-15.1-.013-5.157.059-10.227.017-15.245-.034-5.162-.052-10.241.172-15.252.013-5.165-.163-10.231-.5-15.23-.772-5.169-.276-10.271-.1-15.258-.473-5.169-.387-10.137-1.838-15.1-2.319-5.17-.5-10.311-.144-15.255-.729-5.171-.613-10.255-.909-15.171-1.6-4.786 0-10.149-2.009-14.733-5.583a46.29 46.29 0 0 1 -10.678-11.889c-3.022-4.93-5.579-10.514-5.579-15.2 0-4.9 2.893-9.4 5.469-13.587a34.637 34.637 0 0 1 9.92-10.29c3.827-2.652 8.324-3.936 13.146-5.326 4.643-.619 9.491-1.425 14.734-1.985 4.773-.509 9.765-.768 14.91-1.216 4.855-.422 9.8-1.176 14.887-1.533 4.916-.345 9.877-1.16 14.914-1.436 4.966-.272 9.927-1.494 14.924-1.69 5.013-.2 10.043.166 15 .055 5.061-.113 10.075-.373 14.985-.389 5.018-.016 10.057 1.016 15.09 1.02s10.079-.095 15.088-.056c5.069.041 10.1.019 15.084.113 5.1.1 10.133.068 15.085.239 5.126.176 10.2-.3 15.106-.027 5.164.291 10.158 1.209 15.015 1.634 5.209.455 10.165 1.158 14.937 1.795 4.634 1.772 9.2 3.313 12.74 5.994a35.544 35.544 0 0 1 9.133 10.784c2.328 4.06 2.246 8.677 2.373 13.519.146 5.565 1.818 10.558.576 14.523-1.628 5.2-5.467 8.649-8.682 11.615-3.667 3.385-7.607 6.763-12.075 8.061-4.976 1.447-10.365.525-14.566.525z"/><path d="m2427.672 4299.119a4.523 4.523 0 0 1 .373 3.63 4.9 4.9 0 0 1 -3.166 2.607c-2.051.659-2.954-.309-4.84.372-1.4.506-1.345 1.2-2.718 2.132-3.638 2.469-7.765.127-12.2 1.295a6.2 6.2 0 0 1 -2.385.2 6.341 6.341 0 0 1 -2.521-.886c-3.5-2.013-5.766-.94-7.432-2.8a6.277 6.277 0 0 1 .07-7.672c.393-.412.832-.673 4.772-1.794 2.473-.7 3.708-1.059 4.723-1.278a44.382 44.382 0 0 1 13.252-.75 30.565 30.565 0 0 1 8.289 2.109c1.827.756 3.079 1.471 3.783 2.835z"/><path d="m2389.156 4294.009a6.931 6.931 0 0 1 -4.138.044c-1.806-.371-3.377-.694-3.926-1.963a2.493 2.493 0 0 1 .317-2.526c.371-.417.862-.561 3.781-.55 3.446.012 4.055.218 4.6.55.233.142 1.828 1.113 1.715 2.355s-1.826 1.889-2.349 2.09z"/></g></svg>