<svg height="133.122" viewBox="0 0 467.211 133.122" width="467.211" xmlns="http://www.w3.org/2000/svg"><g fill="#f7f7f8" transform="translate(-1811.388 -2832.353)"><path d="m2169.238 2951.234c-9.41 1.676-18.122 2.527-26.14 3.82-9.531 1.537-18.206 2.386-26.194 3.458-9.569 1.284-18.1 2.617-26.184 3.366-9.321.864-17.787 3.173-26.258 3.53-8.719.367-17.344-.894-26.466-.828-8.223.059-16.872-.477-26.444-.477-9.125 0-17.581-.189-25.586-.418-9.093-.26-17.543-.155-25.585-.654-8.937-.554-17.312-1.421-25.5-2.192-8.637-.813-17.083-.968-25.544-1.928-8.3-.941-16.506-3.45-25.282-4.44-8.075-.911-16.629-.47-25.626-1.348-10.116-1.727-18.247-4.025-24.554-7.7-8.461-4.931-14.44-11.225-17.733-18.662-3.379-7.63-4.754-16.566-4.754-25.609 0-8.621 1.451-16.756 5.323-22.757 3.929-6.086 11.414-9.581 18.811-13.486a95.676 95.676 0 0 1 21.329-7.859c8.445-.87 16.335-.5 23.735-1.272 8.264-.858 15.983-1.994 23.6-2.709 7.924-.744 15.683-1.073 23.678-1.644 7.589-.541 15.319-1.545 23.659-1.913 7.409-.328 15.206-1.34 23.707-1.519 7.374-.155 15.236-1.736 23.761-1.771 9.454-.039 18.274.715 26.6.718 9.424.005 18.224-.247 26.6-.154 9.279.1 18.01 1.833 26.55 2.089 8.99.269 17.718.461 26.548.955 8.649.483 17.375.96 26.513 1.712 8.4.692 17.152 1.271 26.484 2.232 10.351 1.444 18.976 3.008 25.519 6.4 8.992 4.665 14.3 11.653 17.847 18.97 3.7 7.647 4.705 16.359 4.705 25.567 0 8.621.42 16-1.943 21.966-2.563 6.476-7.673 11.556-14.926 16.129-5.14 3.239-11.914 5.603-20.25 8.428z"/><path d="m2264.319 2853.475a9.489 9.489 0 0 1 .552 6.467c-.523 1.618-1.758 2.878-4.69 4.643a39.917 39.917 0 0 1 -11.2 4.46c-6.169 1.576-11.27 2.832-18.07 2.306a43.8 43.8 0 0 1 -7.269-1.214c-5.828-1.477-8.959-2.233-11.01-4.986-2.8-3.756-2.979-10.444.1-13.665.911-.952 2.976-1.713 7.07-3.2a56.273 56.273 0 0 1 7-2.276c6-1.271 7.056.873 16.274.663 3.4-.077 4.873-.406 8.321-.058a20.374 20.374 0 0 1 7.318 1.815c1.672.851 4.331 2.082 5.604 5.045z"/><path d="m2263.874 2841.252c2.7 1.037 5.1.544 7.369.078 3.218-.661 6.016-1.236 7-3.5a4.443 4.443 0 0 0 -.565-4.5c-.662-.742-1.536-1-6.735-.98-6.139.022-7.223.389-8.2.98-.415.254-3.256 1.983-3.056 4.194.2 2.197 3.256 3.37 4.187 3.728z"/></g></svg>