<svg height="109.458" viewBox="0 0 317.425 109.458" width="317.425" xmlns="http://www.w3.org/2000/svg"><g fill="#f7f7f8" transform="translate(-2066.696 -4287.025)"><path d="m2094.382 4323.216c4.534-.46 9.275-3.754 14.795-4.219 4.727-.4 9.917.778 15.263.4 4.831-.342 9.8-2.3 15.057-2.608 4.894-.289 10.107 2.228 15.314 1.98 4.938-.236 9.88-3.392 15.049-3.58 4.972-.181 10.088.929 15.229.8 5-.125 10.056-1.443 15.175-1.509 5.021-.064 10.11-.049 15.209-.049 4.394 0 9.315.341 14.578.448 4.6.094 9.481.731 14.55.894 4.712.151 9.54 1.554 14.5 1.756 4.788.2 9.622 1.084 14.506 1.317 4.855.232 9.8-1.074 14.618-.813 4.922.267 9.753 1.181 14.5 1.47 5.008.305 9.979-.887 14.629-.567 5.147.354 9.977 1.476 14.473 1.835 5.461.435 10.119 2.365 14.255 2.784 4.333 1.195 8.568 1.732 12.475 2.926 4.417 1.348 8.538 2.464 12 4.474 3.82 2.219 6.221 5.318 8.319 9.246 1.758 3.289 5.059 6.866 5.232 11.964.179 5.284-1.343 10.931-2.962 16.106-1.511 4.826-4.729 8.781-9.753 12.341-3.66 2.592-8.306 4.335-14.692 5.736-3.964.509-8.869.652-14.516 1.211-4.462.442-9.158 3.127-14.373 3.576-4.649.4-9.671-.739-14.72-.349-4.759.368-9.673.394-14.626.74-4.841.338-9.6 2.665-14.484 2.97-4.918.307-9.925-1.183-14.733-.921-5.005.273-9.88 1.036-14.6 1.247-5.133.228-10.078-.655-14.666-.517-5.387.162-10.291.02-14.6.031-4.354.011-9.225 2.3-14.426 2.137-4.555-.143-9.337-1.6-14.346-1.849-4.66-.235-9.4-1.712-14.3-2.023-4.735-.3-9.708 1.767-14.531 1.412-4.8-.353-9.5-2.175-14.253-2.566-4.866-.4-9.644-1.086-14.322-1.509-4.953-.447-9.692-1.532-14.272-1.984-5.1-.5-9.9-.937-14.32-1.42-5.443-.6-10.176-.979-14.2-1.5-6.126-1.629-11.572-2.052-15.421-4.575-5.2-3.406-6.906-8.6-8.986-13.04-2.331-4.976-5.314-9.774-5.314-15.145 0-4.761 2.173-9.624 4.59-13.972 2.32-4.172 6.618-6.662 10.559-9.591a28.469 28.469 0 0 1 12.541-5.495z"/><path d="m2173.887 4302.093c-.208-1.87 1.621-3.384 2.909-4.45a14.673 14.673 0 0 1 5.418-2.7c5.432-1.6 8.535-.329 12.2-1.294a6.218 6.218 0 0 1 2.385-.205 6.363 6.363 0 0 1 2.522.886c3.5 2.014 5.766.941 7.431 2.8a6.275 6.275 0 0 1 -.069 7.672c-.394.412-.832.674-4.773 1.794-2.7.769-4.054 1.154-4.723 1.279a28.963 28.963 0 0 1 -10.985-.373c-2.689-.486-2.972-.829-5.809-1.217a9.962 9.962 0 0 1 -3.166-.684c-.478-.217-3.108-1.418-3.34-3.508z"/><path d="m2212.571 4287.369a6.924 6.924 0 0 0 -4.137-.044c-1.807.371-3.378.694-3.927 1.964a2.491 2.491 0 0 0 .317 2.525c.371.417.862.561 3.781.55 3.447-.012 4.055-.218 4.6-.55.233-.142 1.828-1.113 1.715-2.355s-1.826-1.889-2.349-2.09z"/></g></svg>