<svg xmlns="http://www.w3.org/2000/svg" width="536.872" height="164.196" viewBox="0 0 536.872 164.196">
    <g data-name="グループ 534">
        <path data-name="パス 793" d="M2298.787 5674.963c-8.906 1.25-18.141 1.686-27.481 2.795-8.954 1.063-18.129 1.525-27.47 2.433-8.991.873-18.089 2.1-27.428 2.809-9.023.683-18.063 3.417-27.4 3.923-9.049.491-18.319-.83-27.656-.524-9.068.3-18.259-.131-27.591-.024-9.426.108-18.693.032-27.865-.061-9.435-.1-18.718.314-27.877.024-9.441-.3-18.7-.925-27.837-1.412-9.446-.5-18.771-.181-27.883-.864-9.449-.709-18.53-3.361-27.609-4.238-9.451-.914-18.846-.263-27.884-1.334-9.452-1.12-18.746-1.661-27.732-2.922-8.747 0-18.55-3.672-26.928-10.206a84.554 84.554 0 0 1-19.517-21.73c-5.524-9.01-10.2-19.217-10.2-27.779 0-8.959 5.287-17.186 10-24.835a63.346 63.346 0 0 1 18.131-18.807c7-4.847 15.214-7.193 24.028-9.734 8.489-1.132 17.352-2.6 26.937-3.628 8.724-.93 17.848-1.405 27.252-2.223 8.874-.771 17.923-2.149 27.215-2.8 8.984-.631 18.05-2.121 27.257-2.624 9.075-.5 18.142-2.731 27.274-3.089 9.161-.358 18.356.3 27.413.1 9.25-.207 18.413-.683 27.386-.711 9.173-.029 18.383 1.857 27.581 1.864 9.22.007 18.424-.175 27.579-.1 9.263.074 18.464.034 27.569.206 9.313.176 18.519.124 27.568.436 9.37.323 18.635-.554 27.612-.048 9.439.532 18.567 2.21 27.445 2.985 9.523.832 18.581 2.118 27.3 3.282 8.469 3.238 16.821 6.055 23.286 10.955a64.949 64.949 0 0 1 16.693 19.712c4.255 7.419 4.1 15.858 4.337 24.709.268 10.171 3.323 19.3 1.054 26.545-2.975 9.5-9.994 15.807-15.868 21.229-6.7 6.187-13.905 12.363-22.072 14.734-9.088 2.637-18.939.952-26.619.952z" style="fill:#f7f7f8" transform="translate(-1827.309 -5522.838)"/>
    </g>
    <path data-name="パス 794" d="M1912.82 5541.309a8.272 8.272 0 0 1 .68 6.636c-1.289 3.32-4.9 4.479-5.785 4.765-3.749 1.2-5.4-.565-8.848.68-2.559.925-2.458 2.193-4.967 3.9-6.65 4.514-14.193.233-22.294 2.367a11.368 11.368 0 0 1-4.359.374 11.6 11.6 0 0 1-4.608-1.62c-6.4-3.68-10.54-1.719-13.583-5.116-3.222-3.6-3.028-10.723.127-14.023.719-.753 1.52-1.231 8.723-3.279 4.52-1.286 6.778-1.936 8.632-2.336a81.113 81.113 0 0 1 24.222-1.371 55.97 55.97 0 0 1 15.15 3.854c3.335 1.37 5.622 2.677 6.91 5.169z" style="fill:#f7f7f8" transform="translate(-1827.309 -5522.838)"/>
    <path data-name="パス 795" d="M1842.42 5531.97c-2.771 1.064-5.232.558-7.562.08-3.3-.678-6.173-1.268-7.178-3.589a4.555 4.555 0 0 1 .58-4.615c.679-.762 1.576-1.026 6.911-1.007 6.3.023 7.412.4 8.409 1.007.426.259 3.342 2.034 3.136 4.3-.204 2.254-3.34 3.454-4.296 3.824z" style="fill:#f7f7f8" transform="translate(-1827.309 -5522.838)"/>
</svg>
