<svg height="87.833" viewBox="0 0 293.728 87.833" width="293.728" xmlns="http://www.w3.org/2000/svg"><g fill="#f7f7f8" transform="translate(-828.089 -4289.014)"><path d="m1086.039 4370.242c-4.872.684-9.925.923-15.035 1.529-4.9.582-9.915.834-15.024 1.331-4.919.478-9.9 1.15-15.007 1.537-4.937.373-9.883 1.87-14.993 2.147-4.951.268-10.023-.455-15.132-.287-4.962.163-9.991-.072-15.1-.013-5.157.059-10.227.017-15.245-.034-5.162-.052-10.241.172-15.252.013-5.165-.163-10.231-.506-15.231-.772-5.168-.276-10.27-.1-15.257-.473-5.169-.388-10.137-1.839-15.1-2.319-5.171-.5-10.311-.144-15.256-.729-5.171-.613-10.255-.909-15.17-1.6-4.786 0-10.149-2.009-14.733-5.584a46.259 46.259 0 0 1 -10.678-11.888c-3.022-4.93-5.579-10.514-5.579-15.2 0-4.9 2.893-9.4 5.469-13.588a34.632 34.632 0 0 1 9.92-10.289c3.827-2.652 8.324-3.936 13.146-5.326 4.643-.62 9.491-1.425 14.734-1.985 4.773-.509 9.765-.769 14.91-1.216 4.854-.422 9.8-1.176 14.887-1.533 4.916-.345 9.877-1.16 14.914-1.436 4.966-.272 9.927-1.494 14.924-1.69s10.043.166 15 .055c5.061-.113 10.075-.373 14.984-.389 5.019-.016 10.058 1.016 15.091 1.02s10.079-.1 15.088-.056c5.068.041 10.1.019 15.084.113 5.1.1 10.133.068 15.085.238 5.126.177 10.2-.3 15.106-.026 5.164.291 10.157 1.209 15.014 1.633 5.21.456 10.166 1.159 14.938 1.8 4.634 1.772 9.2 3.313 12.74 5.994a35.558 35.558 0 0 1 9.133 10.784c2.328 4.06 2.245 8.677 2.373 13.519.146 5.564 1.818 10.558.576 14.523-1.628 5.2-5.468 8.648-8.682 11.615-3.667 3.385-7.607 6.763-12.075 8.061-4.976 1.443-10.365.521-14.567.521z"/><path d="m874.872 4299.119a4.522 4.522 0 0 1 .373 3.63 4.9 4.9 0 0 1 -3.166 2.607c-2.051.659-2.955-.309-4.84.372-1.4.506-1.345 1.2-2.718 2.132-3.638 2.469-7.765.127-12.2 1.295a6.2 6.2 0 0 1 -2.385.2 6.355 6.355 0 0 1 -2.522-.886c-3.5-2.013-5.766-.94-7.431-2.8a6.275 6.275 0 0 1 .07-7.672c.393-.412.831-.673 4.772-1.794 2.473-.7 3.708-1.059 4.723-1.278a44.382 44.382 0 0 1 13.252-.75 30.563 30.563 0 0 1 8.289 2.109c1.827.756 3.079 1.471 3.783 2.835z"/><path d="m836.355 4294.009a6.928 6.928 0 0 1 -4.137.044c-1.806-.371-3.377-.694-3.926-1.963a2.493 2.493 0 0 1 .317-2.526c.371-.417.862-.561 3.781-.55 3.446.012 4.055.218 4.6.55.234.142 1.829 1.113 1.716 2.355s-1.828 1.889-2.351 2.09z"/></g></svg>