<svg height="85.175" viewBox="0 0 275.855 85.175" width="275.855" xmlns="http://www.w3.org/2000/svg"><g fill="#f7f7f8" transform="translate(-1761.253 -4291.778)"><path d="m1974.419 4367.751c-5.6 1.089-10.784 1.674-15.555 2.514-5.671 1-10.835 1.573-15.589 2.27-5.7.835-10.779 1.682-15.591 2.17-5.557.563-10.595 1.968-15.644 2.2-5.2.239-10.343-.5-15.782-.46-4.9.039-10.06-.281-15.768-.281-5.439 0-10.478-.12-15.249-.269-5.42-.169-10.456-.128-15.25-.453-5.326-.36-10.314-.915-15.193-1.416-5.142-.528-10.175-.671-15.213-1.294-4.941-.612-9.817-2.159-15.041-2.8-4.808-.592-9.909-.379-15.266-.95-6.3-1.173-11.306-2.815-15.137-5.365a26.087 26.087 0 0 1 -10.279-12.375 45.441 45.441 0 0 1 -2.609-16.068c0-5.39.739-10.428 2.878-14.237 2.274-4.047 6.735-6.527 11.116-9.123a53.32 53.32 0 0 1 13.09-5.333c6.113-.687 11.716-.621 16.956-1.209 5.891-.662 11.363-1.461 16.868-1.978 5.524-.519 11.031-.762 16.931-1.116 5.266-.316 10.794-.886 16.937-1.055 5.2-.143 10.795-.681 16.984-.709 5.633-.026 10.885-.925 15.843-.923 5.616 0 10.858.492 15.848.552 5.528.066 10.761 0 15.849.169 5.355.175 10.517 1.345 15.778 1.666 5.151.315 10.347.6 15.789 1.091 5 .45 10.2.9 15.756 1.528 6.447.981 11.472 2.572 15.451 4.933 5.263 3.123 9.1 6.967 11.115 11.807s2.245 10.5 2.245 16.253a41.775 41.775 0 0 1 -1.865 13.545c-1.457 4.29-3.48 8.237-7.719 11.25-3.115 2.215-7.503 3.552-12.684 5.466z"/><path d="m2029.09 4303.637a5.32 5.32 0 0 1 .31 3.63c-.294.909-.987 1.616-2.633 2.607a22.4 22.4 0 0 1 -6.287 2.5c-3.463.885-6.327 1.59-10.145 1.295a24.607 24.607 0 0 1 -4.081-.682c-3.272-.829-5.029-1.254-6.181-2.8-1.571-2.109-1.673-5.864.058-7.672.511-.535 1.671-.962 3.969-1.794a31.5 31.5 0 0 1 3.929-1.278c3.367-.714 3.961.49 9.137.372a30.42 30.42 0 0 1 4.671-.032 11.425 11.425 0 0 1 4.109 1.019 5.9 5.9 0 0 1 3.144 2.835z"/><path d="m2028.841 4296.774a6.924 6.924 0 0 0 4.137.044c1.806-.371 3.377-.694 3.927-1.963a2.493 2.493 0 0 0 -.317-2.526c-.372-.417-.863-.561-3.782-.55-3.446.012-4.055.218-4.6.55-.234.142-1.829 1.113-1.716 2.355s1.828 1.889 2.351 2.09z"/></g></svg>