<svg height="201.503" viewBox="0 0 573.488 201.503" width="573.488" xmlns="http://www.w3.org/2000/svg"><g fill="#f7f7f8" transform="translate(-1846.677 -5314.328)"><path d="m2372.864 5374.944c-8.289-.84-18.142 3.461-28.231 2.613-8.645-.727-17.664-4.312-27.44-5-8.83-.625-18.265 1.745-27.88 1.178-8.945-.527-17.931-6.118-27.447-6.572-9.026-.43-18.51 4.555-27.958 4.21-9.086-.33-18.257-2.933-27.653-3.167-9.137-.227-18.424 1.828-27.778 1.708-9.178-.118-18.408-.269-27.727-.268-8.031 0-16.942-.408-26.562-.212-8.412.172-17.339-.513-26.6-.215-8.612.277-17.6-1.633-26.666-1.264-8.752.356-17.719-.48-26.646-.054-8.873.423-17.633 3.719-26.438 4.2-9 .488-17.962-.16-26.633.368-9.154.558-17.872 3.887-26.372 4.472-9.406.646-18.408-.091-26.624.564-9.985.8-19.379-1.146-26.938-.38-7.92 2.185-15.518 5.123-22.66 7.3a103.471 103.471 0 0 0 -21.668 9.6c-6.983 4.055-13.951 8.76-17.787 15.939-3.213 6.012-1.023 14.3-1.339 23.616-.327 9.657-2.594 19.725.366 29.184 2.762 8.822 7.106 17.956 16.292 24.463a75.752 75.752 0 0 0 27.562 11.813c7.247.931 16.341 2.661 26.667 3.683 8.156.807 17.5-2.454 27.033-1.633 8.5.732 17.216 4.272 26.446 4.985 8.7.672 17.609 1.939 26.661 2.571 8.847.617 18.036-2.451 26.952-1.893 8.986.562 17.746 4.337 26.531 4.816 9.147.5 18.165 0 26.792.383 9.381.417 18.308 2.718 26.693 2.97 9.851.3 18.939.9 26.821.917 7.957.019 16.769-4.475 26.277-4.774 8.325-.261 17.233 1.652 26.387 1.19 8.519-.429 17.471 1.254 26.427.686 8.655-.55 17.156-5.541 25.971-6.189 8.771-.646 17.766 1.31 26.455.6 8.893-.732 17.734-.995 26.286-1.767 9.052-.818 17.968-.5 26.34-1.323 9.315-.92 18.131-1.954 26.2-2.836 9.951-1.087 18.992-2.463 26.338-3.406 11.2-2.977 19.037-10.045 26.072-14.658 9.5-6.224 18.58-11.7 22.382-19.819 4.26-9.1 1.542-20.114 1.542-29.93 0-8.7-1.061-17.335-5.48-25.281-4.241-7.626-8.371-16.825-15.575-22.179a63.827 63.827 0 0 0 -25.391-11.209z"/><path d="m2408.259 5341.869c.38-3.417-2.962-6.184-5.317-8.133a26.839 26.839 0 0 0 -9.9-4.933c-9.929-2.933-15.6-.6-22.294-2.366a11.329 11.329 0 0 0 -4.359-.374 11.6 11.6 0 0 0 -4.608 1.619c-6.4 3.681-10.54 1.72-13.583 5.117-3.222 3.6-3.028 10.723.127 14.023.719.752 1.52 1.23 8.723 3.279 4.94 1.4 7.41 2.107 8.632 2.336 8.036 1.5 14.868.262 20.078-.681 4.916-.889 5.434-1.515 10.619-2.225 2.61-.357 3.911-.394 5.786-1.25.865-.397 5.672-2.592 6.096-6.412z"/><path d="m2337.554 5314.957c2.771-1.064 5.232-.558 7.562-.08 3.3.678 6.173 1.268 7.177 3.589a4.558 4.558 0 0 1 -.579 4.616c-.68.761-1.576 1.025-6.912 1.006-6.3-.023-7.412-.4-8.409-1.006-.426-.26-3.342-2.035-3.136-4.3.205-2.254 3.343-3.458 4.297-3.825z"/></g></svg>