<svg height="182.781" viewBox="0 0 470.11 182.781" width="470.11" xmlns="http://www.w3.org/2000/svg"><g fill="#f7f7f8" transform="translate(-1806.969 -3106.363)"><path d="m2211.316 3273.442c-8.679 1.218-17.33 5.1-26.432 6.182-8.726 1.036-17.951-.992-27.054-.108-8.762.851-17.384 5.134-26.485 5.823-8.793.665-17.834.1-26.934.592-8.819.478-17.864-1.565-26.962-1.266-8.838.29-17.716 4.2-26.81 4.307-9.185.1-18.282.231-27.221.141-9.193-.093-18.255-1.37-27.18-1.653-9.2-.291-18.137-3.106-27.043-3.581-9.2-.491-18.3.129-27.179-.536-9.208-.691-18.275-.936-27.123-1.791-9.209-.891-18.423-.123-27.23-1.167-9.212-1.091-18.027-3.626-26.784-4.855a44.709 44.709 0 0 1 -26.731-9.373 83.639 83.639 0 0 1 -18.8-21.644c-5.383-8.78-8.382-18.893-8.382-27.236a48.7 48.7 0 0 1 6.756-25.25c4.339-7.048 12.176-11.857 19.575-16.985 6.817-4.723 13.822-11.072 22.411-13.548 8.272-1.1 17.693 1.075 27.033.078 8.5-.907 17.133-4.394 26.3-5.191 8.648-.752 17.811 2.059 26.866 1.423 8.755-.615 17.377-5.684 26.349-6.175 8.844-.484 17.95 3.2 26.849 2.852 8.928-.35 17.739-3.942 26.566-4.14 9.014-.2 17.961-.919 26.706-.947 8.938-.028 17.917 4.376 26.881 4.383 8.984.006 17.968-3.169 26.89-3.1 9.027.072 17.955 3.028 26.827 3.2 9.077.172 18.069-1.1 26.888-.8 9.131.315 18.138-.192 26.886.3 9.2.518 18.322-.6 26.974.151 9.28.811 18.151 3.438 26.652 4.572 8.253 3.156 16.592 6.279 22.892 11.053 7.007 5.31 12.312 12.55 16.31 19.521 4.146 7.23 7.259 15.638 7.486 24.263.261 9.911-2.663 18.231-4.874 25.293-2.9 9.26-7.3 16.394-13.022 21.678-6.532 6.029-14.874 8.174-22.833 10.485-8.859 2.572-17.534 3.049-25.018 3.049z"/><path d="m1909.8 3131.7a8.056 8.056 0 0 1 .663 6.467c-1.256 3.235-4.77 4.364-5.637 4.643-3.653 1.174-5.264-.551-8.622.663-2.495.9-2.4 2.137-4.841 3.8-6.481 4.4-13.831.226-21.726 2.306a11.057 11.057 0 0 1 -4.248.364 11.308 11.308 0 0 1 -4.49-1.578c-6.234-3.587-10.271-1.676-13.237-4.986-3.139-3.5-2.951-10.45.124-13.666.7-.733 1.482-1.2 8.5-3.2 4.4-1.253 6.6-1.886 8.412-2.276a79.035 79.035 0 0 1 23.6-1.336 54.55 54.55 0 0 1 14.763 3.756c3.254 1.337 5.484 2.61 6.739 5.043z"/><path d="m1910.194 3115.262c-2.7 1.036-5.1.544-7.369.078-3.218-.661-6.015-1.236-6.994-3.5a4.438 4.438 0 0 1 .565-4.5c.662-.742 1.535-1 6.735-.98 6.139.022 7.223.388 8.194.98.416.253 3.257 1.983 3.056 4.194-.199 2.197-3.255 3.366-4.187 3.728z"/></g></svg>