<svg height="155.681" viewBox="0 0 504.203 155.681" width="504.203" xmlns="http://www.w3.org/2000/svg"><g fill="#f7f7f8" transform="translate(-1824.059 -5190.887)"><path d="m2213.68 5329.75c-10.227 1.988-19.7 3.058-28.421 4.593-10.365 1.824-19.806 2.875-28.5 4.149-10.416 1.527-19.7 3.075-28.494 3.966-10.158 1.029-19.368 3.6-28.6 4.023-9.5.438-18.907-.919-28.849-.84-8.962.071-18.389-.514-28.823-.514-9.943 0-19.152-.219-27.873-.491-9.906-.309-19.109-.234-27.87-.827-9.732-.659-18.847-1.672-27.763-2.588-9.4-.966-18.6-1.226-27.81-2.366-9.032-1.118-17.945-3.945-27.495-5.121-8.789-1.082-18.113-.693-27.9-1.736-11.512-2.145-20.665-5.146-27.668-9.806-9.021-6-15.359-13.666-18.788-22.619-3.378-8.821-4.769-19.015-4.769-29.37 0-9.852 1.351-19.059 5.262-26.02 4.155-7.4 12.308-11.931 20.317-16.677a97.444 97.444 0 0 1 23.926-9.747c11.17-1.256 21.41-1.135 30.986-2.21 10.768-1.209 20.77-2.669 30.832-3.615 10.1-.949 20.163-1.393 30.949-2.04 9.626-.577 19.733-1.62 30.964-1.929 9.5-.261 19.728-1.245 31.037-1.3 10.3-.047 19.9-1.69 28.959-1.686 10.264 0 19.844.9 28.963 1.008 10.1.122 19.669 0 28.97.309 9.788.32 19.223 2.459 28.839 3.046 9.414.574 18.912 1.1 28.86 1.994 9.143.822 18.644 1.65 28.8 2.792 11.785 1.794 20.969 4.7 28.242 9.017 9.62 5.709 16.626 12.734 20.315 21.581s4.1 19.182 4.1 29.706c0 9.852-1.058 17.839-3.408 24.757-2.664 7.841-6.361 15.056-14.11 20.563-5.688 4.048-13.715 6.498-23.18 9.998z"/><path d="m2313.608 5212.562a9.732 9.732 0 0 1 .566 6.636c-.537 1.661-1.8 2.953-4.812 4.764a40.975 40.975 0 0 1 -11.491 4.577c-6.331 1.617-11.565 2.906-18.544 2.366a44.8 44.8 0 0 1 -7.459-1.245c-5.98-1.516-9.192-2.292-11.3-5.117-2.872-3.854-3.058-10.717.1-14.023.935-.977 3.055-1.757 7.256-3.279a57.853 57.853 0 0 1 7.18-2.336c6.155-1.3 7.24.9 16.7.681 3.489-.08 5-.417 8.539-.06a20.892 20.892 0 0 1 7.509 1.863c1.721.869 4.448 2.133 5.756 5.173z"/><path d="m2313.152 5200.019c2.771 1.064 5.232.558 7.562.08 3.3-.679 6.173-1.268 7.177-3.589a4.555 4.555 0 0 0 -.58-4.616c-.679-.762-1.575-1.025-6.911-1.006-6.3.023-7.412.4-8.409 1.006-.426.26-3.342 2.035-3.136 4.3.205 2.254 3.345 3.457 4.297 3.825z"/></g></svg>