<svg height="142" viewBox="0 0 142 142" width="142" xmlns="http://www.w3.org/2000/svg"><path d="m0 0h142v142h-142z" fill="none"/><g transform="translate(-6097.009 -4957)"><path d="m6137.526 5015.069-34.442 20.016 96.313 55.606 34.442-20.016z" fill="#d1d1d2"/><path d="m6190.91 4968.228-8.566 4.977 7.7 13.86-6.356 3.406-20.613-22.072-24.808 1.352-8.567 4.978 4.647 12.463 20.66-1.123 22.191 23.765 19.646-10.528 7.512 13.525 8.566-4.978 1.416-26.1z" fill="#7c7c7c"/><path d="m6205.77 4986.73-23.426-13.525 7.7 13.859-6.356 3.407-8.566 4.978-20.614-22.072-24.808 1.351 4.647 12.464 20.66-1.124 22.191 23.764 19.646-10.528 7.512 13.526z" fill="#ba2d5d"/><path d="m6135.228 5002.6-10.707 6.223-.079 24.8 12.231 7.062 10.707-6.222.079-24.805z" fill="#a4a4a4"/><path d="m6136.752 5015.88 10.707-6.223-.079 24.805-10.707 6.222z" fill="#7c7c7c"/><path d="m6124.519 5008.818 10.708-6.223 12.231 7.062-10.707 6.223z" fill="#d1d1d2"/><path d="m6156.793 5006.369-10.707 6.223-.091 33.475 12.231 7.062 10.707-6.223.091-33.475z" fill="#a4a4a4"/><path d="m6158.318 5019.653 10.707-6.222-.091 33.475-10.707 6.223z" fill="#7c7c7c"/><path d="m6146.084 5012.592 10.709-6.223 12.231 7.062-10.707 6.222z" fill="#d1d1d2"/><path d="m6178.348 5023.448-10.708 6.223-.082 28.846 12.233 7.062 10.707-6.223.082-28.846z" fill="#a4a4a4"/><path d="m6179.873 5036.732 10.707-6.223-.082 28.846-10.707 6.223z" fill="#7c7c7c"/><path d="m6167.64 5029.67 10.708-6.223 12.231 7.062-10.707 6.223z" fill="#d1d1d2"/><path d="m6199.946 5020.443-10.708 6.223-.126 44.295 12.233 7.062 10.707-6.222.125-44.3z" fill="#a4a4a4"/><path d="m6201.469 5033.728 10.708-6.223-.125 44.3-10.707 6.222z" fill="#7c7c7c"/><path d="m6189.237 5026.666 10.708-6.223 12.231 7.062-10.708 6.223z" fill="#d1d1d2"/></g></svg>