<svg height="142" viewBox="0 0 142 142" width="142" xmlns="http://www.w3.org/2000/svg"><path d="m0 0h142v142h-142z" fill="none"/><path d="m6236.205 5676.733-60.939-35.445c-4.326 2.5-7.832 8.569-7.818 13.54l.194 58.291a15.007 15.007 0 0 1 -6.8 11.777l60.939 35.444a15 15 0 0 0 6.8-11.777l-.194-58.29c-.014-4.973 3.491-11.042 7.818-13.54z" fill="#d1d1d2" transform="translate(-6098.207 -5631)"/><path d="m0 0h5.631v7.751h-5.631z" fill="#7c7c7c" transform="matrix(.8689772 -.49485213 .49485213 .8689772 26.916006 101.997442)"/><g transform="translate(-6098.207 -5631)"><path d="m6194.226 5731.76c-.9-20.022-14.938-43.274-31.689-52.944a45.795 45.795 0 0 0 -1.863-1.013c-8.189-4.191-15.5-4.352-20.879-1.227l-8.74 5.079c.274-.159.555-.3.838-.444-6.665 3.336-10.642 11.425-10.116 23 .412 9.142 3.567 18.955 8.47 27.841a78.566 78.566 0 0 0 2.206 3.748c5.637 9 13.037 16.73 21.054 21.359.6.349 1.217.692 1.831 1 8.207 4.2 15.533 4.348 20.913 1.2-.015.008-.029.019-.043.028l8.74-5.081c6.158-3.578 9.781-11.468 9.278-22.546z" fill="#ba2d5d"/><path d="m6194.226 5731.76c-.9-20.022-14.938-43.274-31.689-52.944a45.795 45.795 0 0 0 -1.863-1.013c-8.189-4.191-15.5-4.352-20.879-1.227l-8.74 5.079c5.377-3.126 12.689-2.964 20.879 1.227q.936.48 1.863 1.015c16.751 9.67 30.789 32.92 31.689 52.94.5 11.081-3.119 18.971-9.278 22.55l8.74-5.081c6.158-3.578 9.781-11.468 9.278-22.546z" fill="#7c7c7c"/><path d="m6124.958 5731.925a2.906 2.906 0 0 1 1.01 1.055l3.708 6.425a2.774 2.774 0 0 1 .4 1.4 1.028 1.028 0 0 1 -.353.845l-19.828 14.614a.86.86 0 0 1 -.933-.053 2.553 2.553 0 0 1 -.889-.952l-6.984-12.177a2.578 2.578 0 0 1 -.369-1.2.847.847 0 0 1 .435-.857l22.866-9.249a1.092 1.092 0 0 1 .937.149z" fill="#ba2d5d"/><path d="m6179.6 5733.819c-.741-16.328-12.2-35.275-25.868-43.168a26.735 26.735 0 0 0 -1.491-.808c-14.317-7.342-25.341.466-24.583 17.378.748 16.337 12.21 35.288 25.885 43.183.489.281.98.551 1.475.8 14.318 7.335 25.341-.473 24.582-17.385z" fill="#fff"/><path d="m6155.79 5743.24 3.1-5.319a101.435 101.435 0 0 0 -4.421-2.765l-.019-.012-.637-.371a70.662 70.662 0 0 0 -.58-.332l-.045-.026q-1.761-1-3.463-1.865l-.643-.327 3.047 8.9-2 7.017a38.527 38.527 0 0 0 3.414 2.262q.734.423 1.475.8a29.429 29.429 0 0 0 2.7 1.218z" fill="#fff"/><path d="m6153.8 5700.852c-5.176-2.988-9.713-.766-9.4 5.36.131 2.638.651 8.042 1.109 10.812.955 5.9 3.655 11.589 8.208 14.217s7.544-.1 8.261-4.708c.353-2.325 1.011-7.025 1.157-9.5.348-5.747-4.171-13.198-9.335-16.181z" fill="#7c7c7c"/><path d="m6174.164 5750.626a86.943 86.943 0 0 0 -15.279-12.69l-2.747 4.705-.348.6 1.929 9.188c6.698 2.618 12.495 1.786 16.445-1.803z" fill="#7c7c7c"/><path d="m6150.129 5748.14 2-7.015-.874-2.553-.816-2.382-1.358-3.964c-6.3-3.137-11.857-4.866-15.954-5.132 4.1 8.406 10.153 16.043 17.002 21.046z" fill="#7c7c7c"/><path d="m6198.378 5675.337-.048 24.41 19.125 11 .05-24.41z" fill="#ba2d5d"/><path d="m6214.227 5703.112a8.637 8.637 0 0 0 -3.792-5.771l-5-2.886c-1.892-1.093-3.472-.452-3.817 1.391l-.418 2.442 13.427 7.752z" fill="#fff"/><path d="m6207.965 5685.413c-1.429-.825-2.678-.212-2.592 1.476.038.731.18 2.217.305 2.984a5.454 5.454 0 0 0 2.263 3.919c1.255.725 2.08-.028 2.278-1.3.1-.64.281-1.936.321-2.622a5.523 5.523 0 0 0 -2.575-4.457z" fill="#fff"/></g><path d="m0 0h1.55v14.462h-1.55z" fill="#7c7c7c" transform="matrix(.49924406 -.86646141 .86646141 .49924406 80.003455 40.032522)"/><path d="m0 0h1.55v14.727h-1.55z" fill="#7c7c7c" transform="matrix(.49934991 -.86640041 .86640041 .49934991 79.935741 48.600861)"/><path d="m0 0h1.55v14.464h-1.55z" fill="#7c7c7c" transform="matrix(.49934991 -.86640041 .86640041 .49934991 105.235749 89.253809)"/><path d="m0 0h1.55v14.727h-1.55z" fill="#7c7c7c" transform="matrix(.49934991 -.86640041 .86640041 .49934991 105.211188 97.843306)"/></svg>