<svg height="142" viewBox="0 0 142 142" width="142" xmlns="http://www.w3.org/2000/svg"><g transform="translate(-6098.009 -4267)"><path d="m0 0h142v142h-142z" fill="none" transform="translate(6098.009 4267)"/><path d="m6226.853 4351.548c0-25.27-17.143-54.962-39.028-67.6-6.737-3.889-13.353-5.861-19.667-5.861a26.134 26.134 0 0 0 -12.177 2.867l-.02.012q-.962.5-1.871 1.088l-15.069 8.76 3.812 6.43a43.975 43.975 0 0 0 -2.116 13.9c0 25.27 17.144 54.963 39.029 67.6a42.939 42.939 0 0 0 14.642 5.448l3.314 5.589 12.548-7.4a24.265 24.265 0 0 0 4.778-2.818l.025-.014c7.388-5.598 11.8-15.5 11.8-28.001z" fill="#7c7c7c"/><path d="m6185.108 4392.864c-6.313 0-12.93-1.971-19.667-5.86-21.885-12.636-39.028-42.328-39.028-67.6 0-19.773 11.028-33.058 27.441-33.058 6.314 0 12.931 1.972 19.667 5.861 21.886 12.636 39.029 42.329 39.029 67.6 0 19.772-11.028 33.057-27.442 33.057z" fill="#d1d1d2"/><ellipse cx="28.423" cy="49.231" fill="#fff" rx="28.423" ry="49.231" transform="matrix(.86601668 -.50001511 .50001511 .86601668 6120.124196 4311.143187)"/><g fill="#d1d1d2"><path d="m6169.355 4305.619a1.725 1.725 0 0 0 1.725-1.725v-3.479q-.857-.543-1.725-1.047a44.95 44.95 0 0 0 -1.725-.945v5.471a1.725 1.725 0 0 0 1.725 1.725z"/><path d="m6198.77 4356.565a1.724 1.724 0 0 0 .631 2.356l4.722 2.727q.043-.975.044-1.985c0-.662-.016-1.328-.043-2l-3-1.731a1.724 1.724 0 0 0 -2.354.633z"/><path d="m6169.355 4379.761q.869.5 1.725.945v-5.435a1.725 1.725 0 0 0 -3.45 0v3.443q.858.545 1.725 1.047z"/><path d="m6138.446 4323.464a1.726 1.726 0 0 0 .864-3.22l-4.723-2.727a44.399 44.399 0 0 0 0 3.984l3 1.73a1.7 1.7 0 0 0 .859.233z"/><path d="m6183.8 4318.993a1.726 1.726 0 0 0 2.4-.421l1.656-2.36q-1.1-1.433-2.249-2.8l-2.232 3.179a1.728 1.728 0 0 0 .425 2.402z"/><path d="m6200.483 4375.529-3.008-3.741a1.726 1.726 0 1 0 -2.689 2.163l3.631 4.515a19.78 19.78 0 0 0 2.066-2.937z"/><path d="m6154.907 4360.172a1.727 1.727 0 0 0 -2.4.421l-1.643 2.341q1.042 1.357 2.13 2.661a1.7 1.7 0 0 0 .578-.512l1.76-2.507a1.728 1.728 0 0 0 -.425-2.404z"/><path d="m6138.215 4303.621 3.021 3.756a1.725 1.725 0 0 0 2.689-2.162l-3.647-4.533a19.807 19.807 0 0 0 -2.063 2.939z"/><path d="m6153.916 4301.478a1.726 1.726 0 0 0 1.608-2.349l-1.746-4.5a19.91 19.91 0 0 0 -3.576.32l2.1 5.43a1.725 1.725 0 0 0 1.614 1.099z"/><path d="m6142.732 4343.671a1.725 1.725 0 0 0 -.3-3.437l-3.051.269a1.708 1.708 0 0 0 -.739.249c.388 1.061.8 2.118 1.24 3.171z"/><path d="m6188.5 4384.186-2.092-5.4a1.725 1.725 0 1 0 -3.217 1.247l1.732 4.467a19.847 19.847 0 0 0 3.577-.314z"/><path d="m6194.412 4337.365a1.724 1.724 0 0 0 1.716 1.573c.051 0 .1 0 .154-.007l3.864-.341q-.609-1.681-1.3-3.349l-2.868.254a1.724 1.724 0 0 0 -1.566 1.87z"/></g><path d="m6169.355 4311.753v27.812l24.086 13.906c0-15.36-10.783-34.038-24.086-41.718z" fill="#ba2d5d"/><path d="m6159.018 4371.886c0-13.084-9.186-28.994-20.517-35.536-6.408-3.7-12.128-3.608-15.89-.467l-6.856 3.805 2.576 4.389a23.7 23.7 0 0 0 -.347 4.118c0 13.084 9.186 28.993 20.517 35.535a23.264 23.264 0 0 0 4.241 1.939l2.378 4.053 6.825-4.033a9.735 9.735 0 0 0 2.215-1.309l.02-.011c3.02-2.387 4.838-6.663 4.838-12.483z" fill="#7c7c7c"/><ellipse cx="16.752" cy="29.015" fill="#ba2d5d" rx="16.752" ry="29.015" transform="matrix(.86601668 -.50001511 .50001511 .86601668 6101.571532 4347.860117)"/><path d="m6136.879 4379.449a5.377 5.377 0 0 1 -2.669-.778l-.4-.229a10.579 10.579 0 0 1 -4.853-8.4 1.787 1.787 0 0 1 3.574 0 7 7 0 0 0 3.065 5.308l.4.229c.565.327.925.33 1.013.278s.266-.364.266-1.015v-2.983a5.757 5.757 0 0 0 -2.522-4.367l-4.547-2.626a1.787 1.787 0 0 1 -.894-1.548v-8.318a1.787 1.787 0 0 1 2.68-1.548l7.962 4.6a1.786 1.786 0 1 1 -1.786 3.094l-5.283-3.05v4.188l3.655 2.11a9.258 9.258 0 0 1 4.308 7.462v2.983a4.53 4.53 0 0 1 -2.053 4.11 3.8 3.8 0 0 1 -1.916.5z" fill="#fff"/><path d="m6125.814 4373.548a1.786 1.786 0 0 1 -1.786-1.786v-14.962a7.185 7.185 0 0 1 -3.678 1.471 1.787 1.787 0 0 1 -.357-3.555 4.574 4.574 0 0 0 3.595-3.3 1.947 1.947 0 0 1 2.14-1.415 2.319 2.319 0 0 1 1.873 2.362v19.4a1.787 1.787 0 0 1 -1.787 1.785z" fill="#fff"/></g></svg>