<svg height="142" viewBox="0 0 142 142" width="142" xmlns="http://www.w3.org/2000/svg"><path d="m0 0h142v142h-142z" fill="none"/><g transform="translate(-6429.009 -4267)"><path d="m6496.32 4316.374-49.853 29.044 18.293 10.569-.04 7.674 20.013 11.553.033-7.667 19.3 11.155 49.9-29.085z" fill="#7c7c7c"/><path d="m6489.785 4284.826-.2 67.687 54.212 31.3.2-67.686z" fill="#a4a4a4"/><path d="m6483.737 4288.353-.2 67.687 54.214 31.3.2-67.687z" fill="#a4a4a4"/><path d="m6477.691 4291.858-.2 55.286 54.214 31.3.2-55.286z" fill="#a4a4a4"/><path d="m6530.328 4376.638-1.55-.006.2-51.736-53.823-31.075.775-1.343 54.6 31.525z" fill="#d1d1d2"/><path d="m6535.953 4373.365-1.55-.006.2-51.736-53.823-31.075.775-1.343 54.6 31.525z" fill="#d1d1d2"/><path d="m6541.548 4370.113-1.55-.006.2-51.735-53.823-31.075.775-1.343 54.6 31.525z" fill="#d1d1d2"/><path d="m6504.07 4378.7-.089 28.49-57.626-33.3.089-28.49 18.315 10.582-.04 7.674 20.013 11.553.033-7.666z" fill="#ba2d5d"/><path d="m6531.44 4303.087-54.305-31.586a15.375 15.375 0 0 0 -6.966 12.067l.174 51.943a13.372 13.372 0 0 1 -6.06 10.494l54.3 31.585a13.374 13.374 0 0 0 6.06-10.495l-.174-51.942a15.365 15.365 0 0 1 6.971-12.066z" fill="#d1d1d2"/><path d="m6504.629 4316.979.029-10.208c-4.915-2.837-8.9-.564-8.919 5.075s3.946 12.5 8.861 15.341c4.9 2.829 8.9.561 8.912-5.079z" fill="#ba2d5d"/><path d="m6507.58 4305.393-.028 9.887 8.6 4.963c.012-5.458-3.822-12.108-8.572-14.85z" fill="#fff"/></g><path d="m0 0h1.55v11.704h-1.55z" fill="#7c7c7c" transform="matrix(.49803377 -.86715764 .86715764 .49803377 50.535337 32.916899)"/><path d="m0 0h1.55v11.967h-1.55z" fill="#7c7c7c" transform="matrix(.49803377 -.86715764 .86715764 .49803377 50.510384 41.507791)"/><path d="m0 0h1.55v40.193h-1.55z" fill="#7c7c7c" transform="matrix(.5 -.8660254 .8660254 .5 50.535493 58.502041)"/><path d="m0 0h1.55v27.266h-1.55z" fill="#7c7c7c" transform="matrix(.5 -.8660254 .8660254 .5 50.507769 67.736022)"/><path d="m6554.023 4349.589-.091 28.489-49.951 29.114.089-28.49z" fill="#ba2d5d" transform="translate(-6429.009 -4267)"/></svg>