<?xml version="1.0" encoding="UTF-8"?>
<svg id="_レイヤー_2" data-name="レイヤー 2" xmlns="http://www.w3.org/2000/svg" viewBox="0 0 142 142">
  <defs>
    <style>
      .cls-1 {
        fill: none;
      }

      .cls-2 {
        fill: #7c7c7c;
      }

      .cls-3 {
        fill: #d1d1d2;
      }

      .cls-4 {
        fill: #ba2d5d;
      }
    </style>
  </defs>
  <g id="_デザイン" data-name="デザイン">
    <g>
      <g>
        <path class="cls-2" d="M94.16,107.49c-3.65,0-6.6,1.71-6.6,3.82,0,.35.11.69.26,1.01-18.21,4.19-39.81,2.06-54.59-6.47-9.49-5.48-14.72-12.73-14.73-20.42,0-1.94.33-3.85.98-5.71l-1.23-.71c-.75,2.09-1.15,4.23-1.15,6.42.01,8.22,5.49,15.9,15.43,21.64,10.11,5.84,23.36,8.75,36.59,8.75,6.71,0,13.41-.78,19.7-2.28,1.2.96,3.14,1.59,5.34,1.59,3.64,0,6.6-1.71,6.6-3.82s-2.96-3.82-6.6-3.82h0Z"/>
        <path class="cls-2" d="M40.06,27.31c-2.27-1.31-4.39-1.45-5.89-.58l-8.04,4.67s.03-.01.05-.02c-1.46.83-2.35,2.6-2.22,5.2.12,2.27.56,6.89.95,9.28.82,5.04,3.14,9.94,7.04,12.19,1.88,1.09,3.45,1.1,4.64.38-.02,0-.03.03-.04.04l8.04-4.67c1.3-.76,2.16-2.38,2.48-4.45.32-1.99.91-5.86,1.03-7.99.31-4.92-3.6-11.47-8.03-14.03h0Z"/>
        <path class="cls-2" d="M59.54,82.34c-1.04-6.92-5.93-14.56-11.79-17.95l-10.75-6.21-.45.26s.03-.03.04-.04c-1.19.72-2.76.71-4.64-.38-1.67-.97-3.04-2.44-4.14-4.19-1.59-.21-3.03.04-4.21.73l-8.04,4.67s.04-.02.05-.03c-1.67.95-2.85,2.72-3.31,5.2l-1.3,10.41,41.75,24.1,8.04-4.67-1.25-11.92h0Z"/>
        <path class="cls-3" d="M51.5,87.01c-1.04-6.92-5.93-14.56-11.79-17.95l-15.54-8.97c-5.88-3.4-10.8-1.41-11.87,4.32l-1.3,10.41,41.75,24.1-1.25-11.92h0ZM32.02,31.97c-4.44-2.56-8.32-.66-8.06,4.59.12,2.27.56,6.89.95,9.28.82,5.04,3.14,9.94,7.04,12.19,3.9,2.25,6.47-.09,7.08-4.04.32-1.99.88-6.02,1-8.15.31-4.92-3.58-11.31-8.01-13.87h0Z"/>
        <path class="cls-2" d="M110.27,34.93c-2.27-1.31-4.39-1.45-5.89-.58l-8.04,4.67s.03-.01.05-.02c-1.46.82-2.35,2.6-2.22,5.2.12,2.27.56,6.89.95,9.28.81,5.04,3.14,9.94,7.03,12.19,1.89,1.09,3.45,1.1,4.64.38-.02,0-.03.03-.04.04l8.04-4.67c1.3-.76,2.16-2.39,2.48-4.45.32-1.99.91-5.86,1.03-7.99.31-4.92-3.6-11.47-8.03-14.03Z"/>
        <path class="cls-2" d="M129.75,89.96c-1.04-6.92-5.93-14.56-11.79-17.95l-10.75-6.21-.45.26s.03-.03.04-.04c-1.19.72-2.76.71-4.64-.38-1.67-.97-3.04-2.44-4.14-4.19-1.59-.21-3.03.04-4.21.73l-8.04,4.67s.04-.02.05-.03c-1.67.95-2.85,2.72-3.31,5.2l-1.3,10.41,41.75,24.1,8.04-4.67-1.25-11.92h0Z"/>
        <path class="cls-4" d="M121.71,94.63c-1.04-6.92-5.93-14.56-11.79-17.95l-15.54-8.97c-5.88-3.4-10.8-1.41-11.87,4.32l-1.3,10.41,41.75,24.1-1.25-11.92h0ZM102.23,39.6c-4.44-2.56-8.32-.66-8.06,4.59.12,2.27.56,6.89.95,9.28.81,5.04,3.14,9.94,7.03,12.19,3.9,2.25,6.47-.09,7.08-4.04.32-1.99.88-6.02,1-8.15.3-4.92-3.58-11.31-8.01-13.87h0Z"/>
        <path class="cls-2" d="M98.02,61.47c-.27-.43-.51-.89-.74-1.35-8.07-3.08-17.3-4.72-26.6-4.91-.64-1.72-3.28-3.02-6.45-3.02-3.64,0-6.6,1.71-6.6,3.82s2.96,3.82,6.6,3.82c3.29,0,6-1.4,6.5-3.22,9.09.2,18.11,1.8,26,4.8.42-.01.85,0,1.29.06h0Z"/>
      </g>
      <rect class="cls-1" width="142" height="142"/>
    </g>
  </g>
</svg>