<svg height="54.542" viewBox="0 0 54.542 54.542" width="54.542" xmlns="http://www.w3.org/2000/svg"><g transform="translate(-532.117 -2097.402)"><rect fill="#ff1346" height="54.542" rx="5.142" width="54.542" x="532.117" y="2097.402"/><path d="m567.211 2140.773a3.445 3.445 0 1 0 4.1-3.379v-2.772a.65.65 0 0 0 -.651-.651h-10.621v-2.054h10.617a.65.65 0 0 0 .651-.651v-.786a11.935 11.935 0 0 0 -8.567-11.432 7.368 7.368 0 1 0 -6.7 0 11.934 11.934 0 0 0 -8.568 11.432v.786a.65.65 0 0 0 .651.651h10.617v2.054h-10.621a.65.65 0 0 0 -.651.651v2.772a3.445 3.445 0 1 0 1.3 0v-2.12h9.965v2.12a3.445 3.445 0 1 0 1.3 0v-2.12h9.967v2.12a3.446 3.446 0 0 0 -2.789 3.379zm-13.888-28.273a6.065 6.065 0 1 1 6.065 6.064 6.071 6.071 0 0 1 -6.065-6.064zm-4.552 17.984a10.617 10.617 0 1 1 21.233 0v.134h-21.233zm1.49 10.293a2.142 2.142 0 1 1 -2.142-2.142 2.144 2.144 0 0 1 2.142 2.138zm11.269 0a2.143 2.143 0 1 1 -2.142-2.142 2.145 2.145 0 0 1 2.142 2.138zm11.269 0a2.143 2.143 0 1 1 -2.143-2.142 2.145 2.145 0 0 1 2.144 2.138z" fill="#fff"/></g></svg>