<?xml version="1.0" encoding="UTF-8"?>
<svg id="_レイヤー_2" data-name="レイヤー 2" xmlns="http://www.w3.org/2000/svg" viewBox="0 0 142 142">
  <defs>
    <style>
      .cls-1 {
        fill: none;
      }

      .cls-2 {
        fill: #7c7c7c;
      }

      .cls-3 {
        fill: #d1d1d2;
      }

      .cls-4 {
        fill: #ba2d5d;
      }

      .cls-5 {
        fill: #fff;
      }

      .cls-6 {
        fill: #9eabb1;
      }
    </style>
  </defs>
  <g id="_デザイン" data-name="デザイン">
    <g>
      <g>
        <path class="cls-3" d="M123.5,45.27L58.4,7.41c-4.62,2.67-8.37,9.15-8.35,14.46l.13,38.53c5.96,7.98,13.39,13.18,18.32,16.02,3.19,1.84,5.22,2.66,5.32,2.7v2.9c-.05,14.44-2.87,23.34-6.56,28.81l40.83,23.75c4.02-2.32,7.28-7.97,7.26-12.58l-.21-62.27c-.01-5.31,3.73-11.8,8.35-14.46Z"/>
        <path class="cls-2" d="M68.5,76.43c-4.97-2.87-12.51-8.13-18.5-16.25h0c-6.01,1.19-13.54-2.25-18.51-5.12-3.19-1.84-5.21-3.36-5.32-3.44l-7.66,4.45v2.9c-.13,42.23,23.65,64.69,23.67,64.7,0,0,5.58,1.16,11.35-2.39-.13.08-.26.17-.39.25l7.66-4.45c6.28-3.65,12.94-12.78,13.01-35.05v-2.9c-.1-.04-2.13-.86-5.32-2.7Z"/>
        <rect class="cls-6" x="80.65" y="43.39" width="1.54" height="41.02" transform="translate(-14.63 102.46) rotate(-60)"/>
        <rect class="cls-6" x="74.59" y="56.05" width="1.54" height="27.09" transform="translate(-22.59 100.06) rotate(-60)"/>
        <path class="cls-4" d="M60.83,80.88c-4.97-2.87-12.51-8.13-18.5-16.25-6.01,1.19-13.54-2.25-18.51-5.12-3.19-1.84-5.21-3.36-5.32-3.44v2.9c-.13,42.23,23.65,64.69,23.67,64.7.01,0,23.85,5.03,23.97-37.19v-2.9c-.1-.04-2.13-.86-5.32-2.7Z"/>
        <polygon class="cls-4" points="106.03 54.13 105.86 67.6 59.36 40.73 59.53 27.26 106.03 54.13"/>
        <path class="cls-5" d="M43.15,77.91c-7.15-4.13-12.98-.8-13.01,7.41-.02,8.22,5.77,18.26,12.92,22.38,7.15,4.13,12.98.8,13.01-7.41.02-8.22-5.77-18.26-12.92-22.38Z"/>
        <polygon class="cls-2" points="48.7 87.32 40.78 92.52 36.65 87.38 34.92 88.75 41.45 101.82 50.25 89.55 48.7 87.32"/>
        <rect class="cls-5" x="71.18" y="31.9" width="1.54" height="19.16" transform="translate(.05 83.06) rotate(-60)"/>
        <rect class="cls-6" x="90.16" y="89.73" width="1.54" height="18.43" transform="translate(-40.15 128.55) rotate(-60.14)"/>
        <rect class="cls-6" x="90.26" y="98.84" width="1.54" height="18.72" transform="translate(-48.12 133.28) rotate(-60.14)"/>
        <rect class="cls-6" x="90.29" y="80.41" width="1.54" height="18.73" transform="translate(-32.13 124.06) rotate(-60.14)"/>
      </g>
      <rect class="cls-1" width="142" height="142"/>
    </g>
  </g>
</svg>