<svg height="142" viewBox="0 0 142 142" width="142" xmlns="http://www.w3.org/2000/svg"><path d="m0 0h142v142h-142z" fill="none"/><g transform="translate(-5760.009 -5631)"><path d="m5822.562 5721.933c-1.056-7-6-14.705-11.92-18.126l-15.706-9.068c-3.4-1.965-6.485-2.15-8.7-.862l-9.986 5.8c.017-.009.037-.015.054-.025a7.271 7.271 0 0 0 -3.347 5.259l-1.3 7.668 42.186 24.357 9.986-5.8z" fill="#7c7c7c"/><path d="m5802.888 5666.313c-2.294-1.324-4.444-1.471-5.961-.588l-9.986 5.8c.017-.01.035-.016.052-.025-1.482.832-2.379 2.624-2.247 5.248.119 2.295.57 6.979.959 9.378.824 5.108 3.177 10.046 7.123 12.324 1.9 1.1 3.488 1.108 4.694.382-.016.01-.028.027-.044.036l9.986-5.8c1.315-.764 2.182-2.4 2.508-4.5.311-2.02.878-6.091 1-8.248.306-4.972-3.606-11.42-8.084-14.007z" fill="#7c7c7c"/><path d="m5792.9 5672.116c-4.489-2.591-8.425-.672-8.157 4.635.119 2.295.57 6.979.959 9.378.824 5.108 3.177 10.046 7.123 12.324s6.535-.079 7.158-4.079c.312-2.02.878-6.091 1-8.248.309-4.975-3.603-11.426-8.083-14.01z" fill="#d1d1d2"/><path d="m5800.657 5709.61c5.924 3.42 10.863 11.126 11.919 18.126l1.265 9.2-42.187-24.356 1.3-7.669c1.081-5.805 6.047-7.805 12-4.371z" fill="#d1d1d2"/><path d="m5896.115 5686.816-6.883-3.928a51.04 51.04 0 0 0 -1.82-5.739c-.753-1.953-2.571-5.678-2.571-5.678l3.53-4.77a68.922 68.922 0 0 0 -14.136-17.5l-5.618 3.265c-.754-.516-1.511-1-2.271-1.438a29.217 29.217 0 0 0 -4.662-2.186l-3.352-8.733a22.543 22.543 0 0 0 -7.751-.856 15.979 15.979 0 0 0 -6.641 2.012l-6.891 4.006 3.36 8.728c-.233.173-.438.382-.658.571l-3.971-2.272-6.891 4c-1.53 5.187-1.635 11.6-.225 18.658l6.883 3.928a51.512 51.512 0 0 0 1.813 5.736 57.1 57.1 0 0 0 2.578 5.683l-3.53 4.768a68.892 68.892 0 0 0 14.144 17.507l5.617-3.265a35.255 35.255 0 0 0 2.309 1.464 29.114 29.114 0 0 0 4.617 2.172l3.352 8.717a22.681 22.681 0 0 0 7.751.864 16.221 16.221 0 0 0 6.641-2.021l6.891-4.005-3.36-8.72c.234-.174.44-.384.661-.575l3.968 2.275 6.891-4c1.531-5.184 1.635-11.612.225-18.668zm-28.229 9.693c-2.313 1.918-5.668 1.671-9.04-.276a22.613 22.613 0 0 1 -7.282-7.2c-4.949-7.537-5.651-16.367-1.577-19.762 2.316-1.925 5.671-1.682 9.045.265a22.645 22.645 0 0 1 7.292 7.217c4.942 7.526 5.644 16.374 1.562 19.756z" fill="#a4a4a4"/><path d="m5840.409 5654c-.233.173-.438.382-.658.571l-3.971-2.272-6.891 4 6.906 3.951a13.868 13.868 0 0 1 4.614-6.25z" fill="#7c7c7c"/><path d="m5896.115 5686.816-6.883-3.928a51.04 51.04 0 0 0 -1.82-5.739c-.753-1.953-2.571-5.678-2.571-5.678l3.53-4.77a68.922 68.922 0 0 0 -14.136-17.5l-5.618 3.265c-.754-.516-1.511-1-2.271-1.438a29.217 29.217 0 0 0 -4.662-2.186l-3.352-8.733a22.543 22.543 0 0 0 -7.751-.856 15.979 15.979 0 0 0 -6.641 2.012l-6.891 4.006a15.936 15.936 0 0 1 6.641-2.013 22.587 22.587 0 0 1 7.751.855l3.352 8.734a29.071 29.071 0 0 1 4.662 2.186 36.749 36.749 0 0 1 4.351 2.964l3.538-4.792a68.977 68.977 0 0 1 14.137 17.5l-3.531 4.769a57.968 57.968 0 0 1 2.571 5.679 51.04 51.04 0 0 1 1.82 5.739l6.883 3.929c1.41 7.055 1.306 13.48-.225 18.666l6.891-4c1.531-5.187 1.635-11.615.225-18.671z" fill="#7c7c7c"/><path d="m5869.813 5693.717a11.6 11.6 0 0 1 -4.076-1.489 22.594 22.594 0 0 1 -7.282-7.2c-3.916-5.964-5.164-12.729-3.5-16.979a6.137 6.137 0 0 0 -4.969 1.221c-4.074 3.4-3.372 12.226 1.577 19.763a22.6 22.6 0 0 0 7.282 7.2c3.372 1.947 6.727 2.194 9.04.276a6.745 6.745 0 0 0 1.928-2.792z" fill="#7c7c7c"/><path d="m5884.37 5707.788c.234-.174.44-.384.661-.575l-2.93-1.68a14.055 14.055 0 0 1 -4.621 6.259l3.359 8.721 6.891-4.005z" fill="#7c7c7c"/><path d="m5869.941 5747.567c-1.057-7-6-14.706-11.92-18.127l-15.706-9.067c-3.4-1.965-6.485-2.151-8.7-.863l-9.985 5.8c.017-.01.037-.016.054-.025a7.266 7.266 0 0 0 -3.347 5.259l-1.3 7.668 42.187 24.357 9.986-5.8z" fill="#7c7c7c"/><path d="m5850.267 5691.947c-2.294-1.324-4.444-1.471-5.962-.589l-9.985 5.8c.016-.009.035-.015.051-.024-1.481.832-2.378 2.624-2.246 5.248.118 2.294.569 6.979.959 9.377.823 5.109 3.177 10.046 7.123 12.325 1.9 1.1 3.488 1.108 4.694.382-.016.01-.028.027-.044.036l9.985-5.8c1.316-.764 2.183-2.405 2.508-4.5.312-2.02.878-6.091 1-8.248.306-4.972-3.605-11.422-8.083-14.007z" fill="#7c7c7c"/><path d="m5840.281 5697.75c-4.488-2.592-8.424-.673-8.156 4.635.118 2.294.569 6.979.959 9.377.823 5.109 3.177 10.046 7.123 12.325s6.535-.079 7.158-4.079c.311-2.02.878-6.092 1-8.248.306-4.976-3.606-11.425-8.084-14.01z" fill="#d1d1d2"/><path d="m5848.035 5735.243c5.925 3.421 10.864 11.127 11.92 18.127l1.265 9.2-42.187-24.357 1.3-7.668c1.081-5.8 6.047-7.8 12-4.371z" fill="#d1d1d2"/></g><path d="m0 0h8.267v7.39h-8.267z" fill="#7c7c7c" transform="translate(47.118 89.513)"/><path d="m5832.668 5748.631c-1.057-7-6-14.706-11.92-18.127l-15.706-9.067c-3.4-1.965-6.485-2.15-8.7-.862l-9.985 5.8c.017-.01.037-.015.054-.025a7.266 7.266 0 0 0 -3.347 5.259l-1.3 7.668 42.187 24.357 9.986-5.8z" fill="#7c7c7c" transform="translate(-5760.009 -5631)"/><path d="m5812.994 5693.011c-2.294-1.324-4.444-1.471-5.962-.588l-9.985 5.8c.016-.009.035-.015.051-.024-1.481.832-2.378 2.624-2.246 5.248.118 2.294.569 6.979.959 9.378.823 5.108 3.176 10.046 7.123 12.324 1.9 1.1 3.488 1.108 4.693.382-.015.01-.027.027-.043.036l9.985-5.8c1.316-.764 2.183-2.405 2.508-4.5.312-2.02.878-6.091 1-8.248.306-4.973-3.605-11.419-8.083-14.008z" fill="#7c7c7c" transform="translate(-5760.009 -5631)"/><path d="m5803.008 5698.814c-4.488-2.591-8.424-.672-8.156 4.635.118 2.294.569 6.979.959 9.378.823 5.108 3.176 10.046 7.123 12.324s6.535-.079 7.158-4.079c.311-2.02.878-6.091 1-8.248.308-4.975-3.606-11.424-8.084-14.01z" fill="#ba2d5d" transform="translate(-5760.009 -5631)"/><path d="m5810.762 5736.308c5.925 3.42 10.864 11.126 11.92 18.126l1.265 9.2-42.187-24.357 1.3-7.668c1.081-5.8 6.048-7.8 12-4.371z" fill="#ba2d5d" transform="translate(-5760.009 -5631)"/></svg>