<?xml version="1.0" encoding="UTF-8"?>
<svg id="_レイヤー_2" data-name="レイヤー 2" xmlns="http://www.w3.org/2000/svg" viewBox="0 0 142 142">
  <defs>
    <style>
      .cls-1 {
        fill: none;
      }

      .cls-2 {
        fill: #7c7c7c;
      }

      .cls-3 {
        fill: #d1d1d2;
      }

      .cls-4 {
        fill: #ba2d5d;
      }
    </style>
  </defs>
  <g id="_デザイン" data-name="デザイン">
    <g>
      <g>
        <path class="cls-3" d="M68.96,38.04c-.64-4.25-3.87-8.9-7.59-10.74-1.24-.61-2.75-1.32-4.46-1.91,1.65-1.04,2.72-2.97,3.2-5.26.34-1.62.74-4.91.84-6.56.25-3.83-3.11-6.95-6.94-6.95-3.84,0-7.19,3.12-6.94,6.95.1,1.65.57,4.93.84,6.56.25,1.54.89,2.99,1.85,4.09-2.74.03-4.95.39-7.1,1.3-.6.25-2.53,1.45-2.85,3.2l-4.86,26.94,1.17.99.4-2.24c.33-1.76,2.25-2.95,2.85-3.2,2.15-.91,4.36-1.27,7.1-1.3-.96-1.1-1.6-2.55-1.85-4.09-.26-1.63-.73-4.91-.84-6.56-.25-3.83,3.11-6.95,6.94-6.95,3.83,0,7.19,3.12,6.94,6.95-.1,1.65-.5,4.94-.84,6.56-.48,2.29-1.55,4.22-3.2,5.26,1.71.59,3.22,1.3,4.46,1.91,1.88.93,3.62,2.57,4.98,4.52l-.06-.68.33,1.11c1.18,1.81,2.04,3.84,2.34,5.79l.52,3.77,1.94,6.51,4.93-1.83.33-1.84-4.44-32.3Z"/>
        <path class="cls-3" d="M110.96,92.96l-4.67-33.94c-.64-4.25-3.87-8.9-7.59-10.74-1.24-.61-2.75-1.32-4.46-1.91,1.65-1.04,2.72-2.97,3.2-5.26.34-1.62.74-4.91.84-6.56.25-3.83-3.11-6.95-6.94-6.95-3.84,0-7.19,3.12-6.94,6.95.1,1.65.57,4.93.84,6.56.25,1.54.89,2.99,1.85,4.09-2.74.03-4.95.39-7.1,1.3-.6.25-2.53,1.45-2.85,3.2l-4.86,26.94,3.73,3.15,4.53-2.63-1.73,35.76,5.29,3.05,5.19-3.02,1.88-12.16,2.61,20.77,5.29,3.05,5.2-3.02-3.92-43.8,5.13,17.2,5.49-2.04Z"/>
        <path class="cls-2" d="M109.84,84.81l.26,1.92c7.4,5.18,11.43,11.59,11.44,18.33.01,7.63-5.15,14.84-14.54,20.3-19.73,11.46-51.93,11.47-71.78,0-9.52-5.5-14.77-12.76-14.78-20.45-.01-7.64,5.15-14.85,14.54-20.3.1-.06.22-.12.33-.18l-1.19-1c-9.77,5.72-15.15,13.34-15.14,21.48.01,8.23,5.52,15.94,15.5,21.71,10.13,5.85,23.4,8.77,36.66,8.77,13.26,0,26.51-2.93,36.58-8.78,9.85-5.72,15.27-13.38,15.26-21.55-.01-7.56-4.67-14.67-13.16-20.25Z"/>
        <path class="cls-2" d="M106.29,59.02c-.64-4.25-3.87-8.9-7.59-10.74-1.24-.61-2.76-1.32-4.48-1.9-.82.52-1.78.83-2.89.83-.34,0-.65-.05-.96-.1h-.04s8.97,4.9,10.91,8.81c2.72,5.49,8.09,37.65,8.09,37.65l1.63-.61-4.66-33.94Z"/>
        <path class="cls-2" d="M91.33,27.6c-.34,0-.67.03-.99.08,2.5.58,4.44,4.58,4.44,9.45,0,5.26-2.27,9.53-5.06,9.53-.47,0-.92-.13-1.35-.35v.02c.85.55,1.84.89,2.96.89,3.37,0,5.39-2.66,6.11-6.1.34-1.62.74-4.91.84-6.56.25-3.83-3.11-6.95-6.94-6.95ZM43.63,50.08l.09-1.22-1.12-8.94-2.27,10.93c1.05-.36,2.14-.62,3.3-.77Z"/>
        <path class="cls-2" d="M63.07,57.49l-.06-.68-2.31-7.66.11,5.73c.83.76,1.59,1.65,2.26,2.61Z"/>
        <path class="cls-4" d="M70.34,97.66l-4.67-33.94c-.64-4.25-3.87-8.9-7.59-10.74-1.24-.61-2.75-1.32-4.46-1.91,1.65-1.04,2.72-2.97,3.2-5.26.34-1.62.74-4.91.84-6.56.25-3.83-3.11-6.95-6.94-6.95-3.84,0-7.19,3.12-6.94,6.95.1,1.65.57,4.93.84,6.56.25,1.54.89,2.99,1.85,4.09-2.74.03-4.95.39-7.1,1.3-.6.25-2.53,1.45-2.85,3.2l-4.86,26.94,3.73,3.15,4.53-2.63-1.73,35.76,5.29,3.05,5.2-3.02,1.88-12.16,2.61,20.77,5.29,3.05,5.19-3.02-3.92-43.8,5.13,17.2,5.49-2.04Z"/>
        <path class="cls-2" d="M50.72,32.3c-.34,0-.67.03-.99.08,2.5.58,4.44,4.58,4.44,9.45,0,5.26-2.27,9.53-5.06,9.53-.47,0-.92-.13-1.35-.35v.02c.85.55,1.84.89,2.96.89,3.37,0,5.39-2.66,6.11-6.1.34-1.62.74-4.91.84-6.56.25-3.83-3.11-6.95-6.94-6.95Z"/>
        <polygon class="cls-2" points="39.91 81.85 35.38 84.49 39.3 65.61 40.43 74.54 39.91 81.85"/>
        <polygon class="cls-2" points="63.64 126.3 58.45 129.32 57.41 74.84 59.72 82.5 63.64 126.3"/>
        <path class="cls-2" d="M65.68,63.72c-.64-4.25-3.87-8.9-7.59-10.74-1.24-.61-2.76-1.32-4.48-1.9-.82.52-1.78.83-2.89.83-.34,0-.65-.05-.96-.1h-.04s8.97,4.9,10.91,8.81c2.72,5.49,8.09,37.65,8.09,37.65l1.63-.61-4.67-33.94Z"/>
        <polygon class="cls-2" points="48.67 117.65 43.47 120.67 48.48 89.08 50.54 105.49 48.67 117.65"/>
        <polygon class="cls-2" points="80.53 77.15 76 79.79 79.92 60.91 81.04 69.85 80.53 77.15"/>
        <polygon class="cls-2" points="89.29 112.95 84.09 115.97 89.1 84.38 91.16 100.79 89.29 112.95"/>
        <polygon class="cls-2" points="104.26 121.6 99.07 124.62 98.03 70.14 100.34 77.8 104.26 121.6"/>
        <path class="cls-2" d="M68.96,38.04c-.64-4.25-3.87-8.9-7.59-10.74-1.24-.61-2.76-1.32-4.48-1.9-.82.52-1.78.83-2.89.83-.34,0-.65-.05-.96-.1h-.04s8.97,4.9,10.91,8.81c2.72,5.49,8.09,37.65,8.09,37.65l1.08-.4.33-1.84-4.44-32.3Z"/>
        <path class="cls-2" d="M54,6.61c-.34,0-.67.03-.99.08,2.5.58,4.44,4.58,4.44,9.45,0,5.26-2.27,9.53-5.06,9.53-.47,0-.92-.13-1.35-.35v.02c.85.55,1.84.89,2.96.89,3.37,0,5.39-2.66,6.11-6.1.34-1.62.74-4.91.84-6.56.25-3.83-3.11-6.95-6.94-6.95Z"/>
      </g>
      <rect class="cls-1" width="142" height="142"/>
    </g>
  </g>
</svg>