<svg height="142" viewBox="0 0 142 142" width="142" xmlns="http://www.w3.org/2000/svg"><path d="m0 0h142v142h-142z" fill="none"/><g transform="translate(-6428.009 -4958)"><path d="m6553.921 5001.562-63.627-36.994c-4.329 2.5-7.844 8.578-7.829 13.553l.057 14.114-12.868-7.479.131 55.978 63.627 36.993v-.014c1.359.883 3.285.819 5.424-.416a16.339 16.339 0 0 0 7.37-12.4l.017.009v-.425l-.132-49.365c-.015-4.978 3.499-11.054 7.83-13.554z" fill="#d1d1d2"/><path d="m6516.989 5029.726v-.224a16.3 16.3 0 0 1 7.394-12.8 7.374 7.374 0 0 1 2.552-.944l-60.335-35.079c-1.428-.831-3.116-.736-5.372.479-3.373 1.581-7.981 7.867-7.967 12.842l.133 51.35a15.3 15.3 0 0 1 -6.934 12.01l63.626 36.993a15.3 15.3 0 0 0 6.933-12.009l-.132-51.351a11.976 11.976 0 0 1 .102-1.267z" fill="#d1d1d2"/><path d="m6475.473 5053.462-.028 5.981 5.13 2.963.03-5.981z" fill="#ba2d5d"/><path d="m6481.344 5063.746-6.675-3.857.036-7.766 6.677 3.854zm-5.122-4.75 3.584 2.07.023-4.2-3.586-2.071z" fill="#ba2d5d"/><path d="m6465.053 5044.54-.029 8.888 5.132 2.963.029-8.888z" fill="#ba2d5d"/><path d="m6470.926 5057.73-6.678-3.856.034-10.673 6.679 3.855zm-5.125-4.749 3.584 2.07.023-7.1-3.585-2.069z" fill="#ba2d5d"/><path d="m6496.317 5061.925-.039 9.546 5.123 2.958.039-9.546z" fill="#ba2d5d"/><path d="m6502.17 5075.768-6.669-3.851.047-11.332 6.669 3.851zm-5.115-4.744 3.577 2.065.031-7.76-3.577-2.065z" fill="#ba2d5d"/><path d="m6485.913 5053.136-.047 12.323 5.123 2.958.047-12.324z" fill="#ba2d5d"/><path d="m6491.759 5069.757-6.669-3.851.053-14.11 6.669 3.851zm-5.116-4.744 3.575 2.065.041-10.538-3.575-2.065z" fill="#ba2d5d"/><path d="m6499.848 5054.309-11.637-10.774-9.3 1.891a.774.774 0 0 1 -.673-.185l-9.719-8.784 1.038-1.151 9.428 8.523 9.3-1.892a.771.771 0 0 1 .681.19l11.929 11.043z" fill="#7c7c7c"/><path d="m6502.042 5053.361a5.323 5.323 0 0 0 -.619-1.1 4.108 4.108 0 0 0 -1.216-1.133c-1.194-.69-2.167-.14-2.172 1.234a3.348 3.348 0 0 0 .067.651 4.636 4.636 0 0 0 .384 1.135 4.584 4.584 0 0 0 1.708 1.951c1.191.688 2.165.134 2.167-1.24a3.949 3.949 0 0 0 -.319-1.498z" fill="#7c7c7c"/><path d="m6490.511 5042.881a5.275 5.275 0 0 0 -.618-1.1 4.115 4.115 0 0 0 -1.216-1.133c-1.194-.69-2.168-.14-2.171 1.234a3.5 3.5 0 0 0 .063.651 4.753 4.753 0 0 0 .387 1.136 4.59 4.59 0 0 0 1.707 1.951c1.192.687 2.165.133 2.168-1.241a3.979 3.979 0 0 0 -.32-1.498z" fill="#7c7c7c"/><path d="m6480.558 5044.328a5.279 5.279 0 0 0 -.619-1.1 4.111 4.111 0 0 0 -1.214-1.132c-1.2-.691-2.169-.14-2.172 1.233a3.3 3.3 0 0 0 .063.651 4.705 4.705 0 0 0 .387 1.136 4.576 4.576 0 0 0 1.707 1.95c1.191.688 2.165.134 2.168-1.239a3.969 3.969 0 0 0 -.32-1.499z" fill="#7c7c7c"/><path d="m6470.882 5035.655a5.274 5.274 0 0 0 -.619-1.1 4.111 4.111 0 0 0 -1.214-1.132c-1.2-.69-2.168-.141-2.172 1.233a3.429 3.429 0 0 0 .065.651 4.867 4.867 0 0 0 2.092 3.086c1.193.688 2.165.134 2.168-1.24a3.99 3.99 0 0 0 -.32-1.498z" fill="#7c7c7c"/><path d="m6491.854 5015.617-.035 16.849 13.2 7.592.035-16.848z" fill="#7c7c7c"/></g><path d="m0 0h1.55v23.143h-1.55z" fill="#7c7c7c" transform="matrix(.49803377 -.86715764 .86715764 .49803377 36.651997 49.135126)"/><path d="m0 0h1.55v23.409h-1.55z" fill="#7c7c7c" transform="matrix(.49803377 -.86715764 .86715764 .49803377 36.627409 57.724648)"/><path d="m0 0h1.549v56.903h-1.549z" fill="#fff" transform="matrix(.51399046 -.8577959 .8577959 .51399046 52.406381 30.544083)"/><path d="m6531.816 5020.942c-.013-4.7-3.34-6.607-7.434-4.244a16.3 16.3 0 0 0 -7.393 12.8l.066 38.7 14.89 8.668z" fill="#a4a4a4" transform="translate(-6428.009 -4958)"/></svg>