<?xml version="1.0" encoding="UTF-8"?>
<svg id="_レイヤー_2" data-name="レイヤー 2" xmlns="http://www.w3.org/2000/svg" viewBox="0 0 142 142">
  <defs>
    <style>
      .cls-1 {
        fill: none;
      }

      .cls-2 {
        fill: #7c7c7c;
      }

      .cls-3 {
        fill: #d1d1d2;
      }

      .cls-4 {
        fill: #ba2d5d;
      }

      .cls-5 {
        fill: #fff;
      }
    </style>
  </defs>
  <g id="_デザイン" data-name="デザイン">
    <g>
      <g id="Layer_1" data-name="Layer 1">
        <g>
          <path class="cls-3" d="M138,44.83L76.72,9.14c-4.25,2.46-7.7,8.42-7.69,13.31l.1,31.99c14.47,10.72,25.99,31.22,26.79,49.13.14,3.07-.05,5.87-.52,8.42l28.41,16.55c3.7-2.14,6.7-7.34,6.69-11.58l-.19-58.83c-.02-4.89,3.43-10.86,7.69-13.31h0Z"/>
          <polygon class="cls-4" points="107.67 93.51 107.62 107.57 114.74 111.68 114.79 97.62 107.67 93.51"/>
          <polygon class="cls-4" points="96.29 83.9 96.23 100.99 103.36 105.11 103.42 88.01 96.29 83.9"/>
          <rect class="cls-2" x="86.75" y="35.77" width="1.52" height="14.34" transform="translate(6.6 97.3) rotate(-60.03)"/>
          <rect class="cls-2" x="86.83" y="44.15" width="1.52" height="14.6" transform="translate(-.73 101.63) rotate(-60.03)"/>
          <path class="cls-4" d="M109.13,59.24l.03-11.37c-5.48-3.16-9.92-.63-9.94,5.66-.02,6.28,4.4,13.93,9.87,17.09,5.46,3.15,9.91.62,9.93-5.66l-9.9-5.71h0Z"/>
          <path class="cls-5" d="M111.67,46.43l-.03,11.38,9.9,5.71c.02-6.28-4.4-13.94-9.86-17.1h0Z"/>
          <path class="cls-4" d="M95.93,103.58c-.88-19.68-14.69-42.54-31.15-52.05-.61-.35-1.22-.68-1.83-1-8.05-4.12-15.24-4.28-20.53-1.21l-8.59,4.99c.27-.16.54-.3.82-.44-6.55,3.28-10.46,11.23-9.94,22.62.41,8.99,3.51,18.63,8.33,27.37.69,1.25,1.41,2.48,2.17,3.68,5.54,8.85,12.82,16.45,20.7,21,.59.34,1.2.68,1.8.98,8.07,4.13,15.27,4.27,20.56,1.18-.02,0-.03.02-.04.03l8.59-4.99c6.06-3.52,9.61-11.28,9.12-22.17h0Z"/>
          <path class="cls-2" d="M95.93,103.58c-.88-19.68-14.69-42.54-31.15-52.05-.61-.35-1.22-.68-1.83-1-8.05-4.12-15.24-4.28-20.53-1.21l-8.59,4.99c5.29-3.07,12.47-2.91,20.53,1.21.61.31,1.23.65,1.83,1,16.47,9.51,30.27,32.36,31.15,52.05.49,10.89-3.07,18.65-9.12,22.17l8.59-4.99c6.06-3.52,9.61-11.28,9.12-22.17Z"/>
          <path class="cls-4" d="M27.83,103.74c.36.21.73.57.99,1.04l3.65,6.32c.27.46.4.96.39,1.38,0,.37-.12.67-.35.83l-19.49,14.37c-.25.17-.58.14-.92-.05-.31-.18-.63-.51-.87-.94l-6.87-11.97c-.24-.41-.36-.83-.36-1.18,0-.4.14-.72.43-.84l22.48-9.09c.26-.11.59-.04.92.15h0Z"/>
          <rect class="cls-2" x="30.27" y="102.17" width="4.09" height="9.14" transform="translate(-48.61 30) rotate(-29.68)"/>
          <path class="cls-5" d="M81.55,105.61c-.73-16.05-11.99-34.68-25.43-42.44-.48-.28-.98-.55-1.47-.8-14.07-7.22-24.91.46-24.17,17.09.74,16.06,12.01,34.69,25.45,42.45.48.28.96.54,1.45.79,14.07,7.21,24.91-.47,24.17-17.1h0Z"/>
          <g>
            <path class="cls-2" d="M56.62,79.1c-10.2-5.89-18.51,2.76-18.51,2.76,0,0,8.24,18.21,18.44,24.1,10.21,5.89,18.51-2.76,18.51-2.76,0,0-8.23-18.2-18.44-24.1h0ZM56.56,101.06c-4.1-2.37-7.41-8.11-7.4-12.82.01-4.71,3.35-6.61,7.45-4.24,4.1,2.37,7.41,8.11,7.4,12.82-.01,4.71-3.35,6.61-7.45,4.24Z"/>
            <path class="cls-2" d="M59.56,94.08c-1.31-.76-2.37-2.59-2.37-4.1,0-1.2.68-1.84,1.61-1.66-.67-.75-1.42-1.38-2.21-1.84-2.9-1.67-5.26-.32-5.27,3.02,0,3.33,2.34,7.41,5.24,9.08s5.27.32,5.28-3.01c0-.55-.06-1.13-.18-1.71-.41.62-1.2.74-2.1.22Z"/>
          </g>
          <path class="cls-2" d="M113.53,88.81c0-.69.25-1.16.65-1.38l-10.77-9.44c.04.2.07.4.07.59,0,.51-.14.91-.37,1.16l10.44,9.15s0-.06,0-.09ZM99.66,77.88c-.17-.34-.29-.7-.36-1.06l-7.81,1.58-2.79-.09c.26.51.52,1.03.77,1.55l2.06.07c.05,0,.12,0,.18-.01l8.17-1.65c-.07-.12-.15-.25-.21-.38h0Z"/>
          <path class="cls-2" d="M117.47,89.79c-.16-.38-.36-.75-.61-1.09-.34-.46-.75-.86-1.19-1.11-1.17-.68-2.13-.14-2.13,1.21,0,.21.02.42.06.64.07.37.21.75.38,1.12.39.8.99,1.52,1.68,1.92,1.17.68,2.13.13,2.13-1.22,0-.47-.11-.98-.32-1.47h0ZM103.16,77.11c-.16-.38-.36-.75-.61-1.09-.34-.46-.75-.86-1.19-1.11-1.17-.68-2.13-.14-2.14,1.21,0,.21.02.42.06.64.07.37.2.75.38,1.12.39.8,1,1.52,1.68,1.92,1.17.68,2.13.13,2.13-1.22,0-.47-.11-.98-.31-1.47h0Z"/>
        </g>
      </g>
      <rect class="cls-1" width="142" height="142"/>
    </g>
  </g>
</svg>