<svg height="54.542" viewBox="0 0 54.542 54.542" width="54.542" xmlns="http://www.w3.org/2000/svg"><rect fill="#ff1346" height="54.542" rx="5.142" width="54.542"/><g fill="#fff" transform="translate(-208.829 -2097.402)"><path d="m229.25 2119.892a5.38 5.38 0 1 0 -5.482 0 8.625 8.625 0 0 0 -5.875 8.161v.558a.607.607 0 0 0 .607.607h16.018a.606.606 0 0 0 .607-.607v-.558a8.624 8.624 0 0 0 -5.875-8.161zm-6.907-4.621a4.166 4.166 0 1 1 4.166 4.166 4.171 4.171 0 0 1 -4.166-4.166zm-3.236 12.729a7.4 7.4 0 0 1 14.805 0z"/><path d="m248.431 2129.751a5.38 5.38 0 1 0 -5.482 0 8.624 8.624 0 0 0 -5.875 8.161v.559a.607.607 0 0 0 .607.607h16.019a.607.607 0 0 0 .607-.607v-.559a8.624 8.624 0 0 0 -5.876-8.161zm-6.907-4.622a4.166 4.166 0 1 1 4.166 4.167 4.171 4.171 0 0 1 -4.166-4.167zm-3.236 12.735a7.4 7.4 0 0 1 14.8 0z"/><path d="m245.083 2111.155v4.152l-1.059-.93a.607.607 0 1 0 -.8.911l2.066 1.816a.546.546 0 0 0 .1.057.514.514 0 0 0 .082.049.576.576 0 0 0 .446 0 .513.513 0 0 0 .082-.049.614.614 0 0 0 .1-.057l2.066-1.816a.607.607 0 1 0 -.8-.911l-1.059.93v-4.152a3.152 3.152 0 0 0 -3.149-3.149h-6.31a.607.607 0 1 0 0 1.214h6.31a1.937 1.937 0 0 1 1.925 1.935z"/><path d="m234.518 2140.127h-6.31a1.938 1.938 0 0 1 -1.935-1.935v-4.153l1.059.93a.607.607 0 1 0 .8-.911l-2.067-1.816a.624.624 0 0 0 -.1-.057.562.562 0 0 0 -.082-.049.607.607 0 0 0 -.447 0 .563.563 0 0 0 -.082.049.553.553 0 0 0 -.095.057l-2.067 1.816a.607.607 0 1 0 .8.911l1.059-.93v4.153a3.151 3.151 0 0 0 3.148 3.148h6.31a.607.607 0 1 0 0-1.213z"/></g></svg>