<?xml version="1.0" encoding="UTF-8"?>
<svg id="_レイヤー_2" data-name="レイヤー 2" xmlns="http://www.w3.org/2000/svg" viewBox="0 0 142 142">
  <defs>
    <style>
      .cls-1 {
        fill: none;
      }

      .cls-2 {
        fill: #7c7c7c;
      }

      .cls-3 {
        fill: #d1d1d2;
      }

      .cls-4 {
        fill: #ba2d5d;
      }

      .cls-5 {
        fill: #fff;
      }
    </style>
  </defs>
  <g id="_デザイン" data-name="デザイン">
    <g>
      <g>
        <g>
          <path class="cls-2" d="M66,71.68l.11-42.11c-10.18-5.88-19.41-6.42-26.07-2.55,0,0-9.98,5.8-9.97,5.8-6.58,3.82-10.66,11.94-10.69,23.5-.07,23.25,16.28,51.57,36.51,63.26,10.19,5.88,19.42,6.42,26.08,2.55,0,0,0,0,0,0l9.98-5.8c6.58-3.82,10.65-11.95,10.69-23.5l-36.63-21.15Z"/>
          <path class="cls-2" d="M86.11,17.4l-9.98,5.8-.12,42.1,36.63,21.15,9.98-5.8c.07-23.25-16.27-51.56-36.52-63.25Z"/>
          <path class="cls-4" d="M76.13,23.2c20.24,11.69,36.58,40,36.52,63.25l-36.63-21.15.12-42.1Z"/>
          <path class="cls-3" d="M56.13,35.37l-.11,42.11,36.63,21.15c-.07,23.25-16.52,32.63-36.76,20.94-20.23-11.68-36.58-40.01-36.51-63.26.07-23.25,16.52-32.63,36.75-20.94Z"/>
          <rect class="cls-2" x="28.21" y="84.55" width="29.99" height="1.55" transform="translate(-38.33 35.33) rotate(-31.63)"/>
          <g>
            <path class="cls-2" d="M66.2,116.72c-.08-.05-.16-.08-.24-.09l-.11-.02c-.4-.11-.64.24-.52.77.1.42.4.84.72,1.02.07.04.14.07.21.09l.16.03c.39.09.61-.27.48-.81-.1-.41-.39-.81-.7-1Z"/>
            <path class="cls-2" d="M74.15,118.29c-.08-.05-.16-.08-.24-.09l-.11-.02c-.41-.11-.64.24-.52.77.1.43.4.84.71,1.02.07.04.14.07.21.09l.16.03c.39.09.61-.27.47-.81-.1-.41-.39-.81-.7-1Z"/>
            <path class="cls-2" d="M79.7,114.98c-.08-.05-.16-.08-.24-.09l-.11-.02c-.41-.11-.64.24-.52.77.1.42.4.84.71,1.02.07.04.14.07.22.09l.16.03c.39.09.61-.27.47-.81-.1-.41-.39-.81-.7-1Z"/>
            <path class="cls-2" d="M85.17,111.58c-.08-.05-.16-.08-.24-.09l-.11-.02c-.41-.11-.64.24-.52.77.1.42.4.84.71,1.02.07.04.14.07.21.09l.16.03c.39.09.61-.27.48-.81-.1-.41-.39-.81-.7-1Z"/>
            <path class="cls-2" d="M76.5,110.4c-.08-.05-.16-.08-.24-.09l-.11-.02c-.4-.11-.64.24-.51.77.1.43.4.84.71,1.02.07.04.14.07.22.09l.16.03c.39.09.61-.27.47-.81-.1-.41-.39-.81-.7-1Z"/>
            <path class="cls-2" d="M71.37,113.65c-.08-.05-.16-.08-.24-.09l-.11-.02c-.41-.11-.64.24-.52.77.1.42.4.84.72,1.02.07.04.14.07.21.09l.16.03c.39.09.61-.27.48-.81-.1-.41-.39-.81-.7-1Z"/>
            <path class="cls-2" d="M51.94,106.13c-.08-.05-.16-.08-.24-.09l-.11-.02c-.4-.11-.64.24-.51.77.1.42.4.84.71,1.02.07.04.14.07.21.09l.16.03c.39.09.61-.27.48-.81-.1-.41-.39-.81-.7-1Z"/>
            <path class="cls-2" d="M57.11,102.9c-.08-.05-.16-.08-.24-.09l-.11-.02c-.4-.11-.64.24-.51.77.1.42.4.84.71,1.02.07.04.14.07.21.09l.16.03c.39.09.61-.27.48-.81-.1-.41-.39-.81-.7-1Z"/>
            <path class="cls-2" d="M46.98,102.9c-.08-.05-.16-.08-.24-.09l-.11-.02c-.4-.11-.63.24-.51.77.1.42.4.84.71,1.02.07.04.14.07.21.09l.16.03c.39.09.61-.27.47-.81-.1-.41-.39-.81-.7-1Z"/>
            <path class="cls-2" d="M52.15,99.68c-.08-.05-.16-.08-.24-.09l-.11-.02c-.4-.11-.63.24-.51.77.1.42.4.84.71,1.02.07.04.14.07.21.09l.16.03c.39.09.61-.27.48-.81-.1-.41-.39-.81-.7-1Z"/>
            <path class="cls-2" d="M43.31,98.55c-.08-.05-.16-.08-.24-.09l-.11-.02c-.4-.11-.64.24-.51.77.1.42.4.84.71,1.02.07.04.14.07.21.09l.16.03c.39.09.61-.27.48-.81-.1-.41-.39-.81-.7-1Z"/>
            <path class="cls-2" d="M48.14,95.68c-.08-.05-.16-.08-.24-.09l-.11-.02c-.4-.11-.64.24-.52.77.1.42.4.84.71,1.02.07.04.14.07.21.09l.16.03c.39.09.61-.27.48-.81-.1-.41-.39-.81-.7-1Z"/>
            <path class="cls-2" d="M40.07,94.15c-.08-.05-.16-.08-.24-.09l-.11-.02c-.4-.11-.63.24-.51.77.1.42.4.84.71,1.02.07.04.14.07.21.09l.16.03c.39.09.61-.27.47-.81-.1-.41-.39-.81-.7-1Z"/>
            <path class="cls-2" d="M46.56,91.6c-.1-.41-.39-.81-.7-1-.08-.05-.16-.08-.24-.09l-.11-.02c-.4-.11-.63.24-.51.77.1.42.4.84.71,1.02.07.04.14.07.21.09l.16.03c.39.09.61-.27.47-.81Z"/>
            <path class="cls-2" d="M51.57,88.9l.16.03c.39.09.61-.27.48-.81-.1-.41-.39-.81-.7-1-.08-.05-.16-.08-.24-.09l-.11-.02c-.41-.11-.64.24-.52.77.1.42.4.84.71,1.02.07.04.14.07.21.09Z"/>
            <path class="cls-2" d="M57.14,85.27c.07.04.14.07.21.09l.16.03c.39.09.61-.27.48-.81-.1-.41-.39-.81-.7-1-.08-.05-.16-.08-.24-.09l-.11-.02c-.41-.11-.64.24-.52.77.1.42.4.84.71,1.02Z"/>
            <path class="cls-2" d="M52.8,92.68c-.08-.05-.16-.08-.24-.09l-.11-.02c-.41-.11-.64.24-.52.77.1.43.4.84.71,1.02.07.04.14.07.22.09l.16.03c.39.09.61-.27.48-.81-.1-.41-.39-.81-.7-1Z"/>
            <path class="cls-2" d="M57.64,89.81c-.08-.05-.16-.08-.24-.09l-.11-.02c-.41-.11-.64.24-.52.77.1.42.4.84.71,1.02.07.04.14.07.21.09l.16.03c.39.09.61-.27.48-.81-.1-.41-.39-.81-.7-1Z"/>
            <path class="cls-2" d="M62.23,88.53c.07.04.14.07.21.09l.16.03c.39.09.61-.27.48-.81-.1-.41-.39-.81-.7-1-.08-.05-.16-.08-.24-.09l-.11-.02c-.4-.11-.64.24-.52.77.1.43.4.84.71,1.02Z"/>
            <path class="cls-2" d="M57.29,96.43c-.08-.05-.16-.08-.24-.09l-.11-.02c-.41-.11-.64.24-.52.77.1.42.4.84.71,1.02.07.04.14.07.21.09l.16.03c.39.09.61-.27.48-.81-.1-.41-.39-.81-.7-1Z"/>
            <path class="cls-2" d="M62.47,93.2c-.08-.05-.16-.08-.24-.09l-.11-.02c-.41-.11-.64.24-.52.77.1.42.4.84.71,1.02.07.04.14.07.21.09l.16.03c.39.09.61-.27.48-.81-.1-.41-.39-.81-.7-1Z"/>
            <path class="cls-2" d="M67.65,90.04c-.08-.05-.16-.08-.24-.09l-.11-.02c-.4-.11-.64.24-.51.77.1.42.4.84.71,1.02.07.04.14.07.21.09l.16.03c.39.09.61-.27.48-.81-.1-.41-.39-.81-.7-1Z"/>
            <path class="cls-2" d="M62.47,99.78c-.08-.05-.16-.08-.24-.09l-.11-.02c-.41-.11-.64.24-.52.77.1.43.4.84.71,1.02.07.04.14.07.21.09l.16.03c.39.09.61-.27.48-.81-.1-.41-.39-.81-.7-1Z"/>
            <path class="cls-2" d="M67.64,96.55c-.08-.05-.16-.08-.24-.09l-.11-.02c-.41-.11-.64.24-.52.77.1.43.4.84.71,1.02.07.04.14.07.22.09l.16.03c.39.09.61-.27.48-.81-.1-.41-.39-.81-.7-1Z"/>
            <path class="cls-2" d="M72.73,94.96c.07.04.14.07.21.09l.16.03c.39.09.61-.27.48-.81-.1-.41-.39-.81-.7-1-.08-.05-.16-.08-.24-.09l-.11-.02c-.4-.11-.64.24-.51.77.1.42.4.84.71,1.02Z"/>
            <path class="cls-2" d="M55.75,110.31c-.08-.05-.16-.08-.24-.09l-.11-.02c-.4-.11-.63.24-.51.77.1.42.4.84.71,1.02.07.04.14.07.21.09l.16.03c.39.09.61-.27.48-.81-.1-.41-.39-.82-.7-1Z"/>
            <path class="cls-2" d="M61.39,106.86c-.08-.05-.16-.08-.24-.09l-.11-.02c-.41-.11-.64.24-.51.77.1.43.4.84.71,1.02.07.04.14.07.21.09l.16.03c.39.09.61-.27.48-.81-.1-.41-.39-.81-.7-1Z"/>
            <path class="cls-2" d="M66.95,103.37c-.08-.05-.16-.08-.24-.09l-.11-.02c-.41-.11-.64.24-.52.77.1.42.4.84.71,1.02.07.04.14.07.22.09l.16.03c.39.09.61-.27.48-.81-.1-.41-.39-.81-.7-1Z"/>
            <path class="cls-2" d="M73.37,100.91c-.1-.41-.39-.81-.7-1-.08-.05-.16-.08-.24-.09l-.11-.02c-.41-.11-.64.24-.52.77.1.42.4.84.71,1.02.07.04.14.07.21.09l.16.03c.39.09.61-.27.48-.81Z"/>
            <path class="cls-2" d="M78.09,98.12c.07.04.14.07.21.09l.16.03c.39.09.61-.27.48-.81-.1-.41-.39-.81-.7-1-.08-.05-.16-.08-.24-.09l-.11-.02c-.41-.11-.64.24-.51.77.1.42.4.84.71,1.02Z"/>
            <path class="cls-2" d="M87.48,104.97c-.1-.41-.39-.81-.7-1-.08-.05-.16-.08-.24-.09l-.11-.02c-.41-.11-.64.24-.52.77.1.43.4.84.71,1.02.07.04.14.07.21.09l.16.03c.39.09.61-.27.48-.81Z"/>
            <path class="cls-2" d="M81.65,107.23c-.08-.05-.16-.08-.24-.09l-.11-.02c-.4-.11-.64.24-.51.77.1.42.4.84.71,1.02.07.04.14.07.21.09l.16.03c.39.09.61-.27.48-.81-.1-.41-.39-.81-.7-1Z"/>
            <path class="cls-2" d="M60.12,114.09c-.08-.05-.16-.08-.24-.09l-.11-.02c-.41-.11-.64.24-.52.77.1.42.4.84.71,1.02.07.04.14.07.21.09l.16.03c.39.09.61-.27.47-.81-.1-.41-.39-.81-.7-1Z"/>
            <path class="cls-2" d="M65.83,112.2c.07.04.14.07.21.09l.16.03c.39.09.61-.27.48-.81-.1-.41-.39-.81-.7-1-.08-.05-.16-.08-.24-.09l-.11-.02c-.4-.11-.64.24-.51.77.1.43.4.84.71,1.02Z"/>
            <path class="cls-2" d="M71.92,106.83c-.08-.05-.16-.08-.24-.09l-.11-.02c-.4-.11-.64.24-.51.77.1.42.4.84.71,1.02.07.04.14.07.21.09l.16.03c.39.09.61-.27.48-.81-.1-.41-.39-.81-.7-1Z"/>
            <path class="cls-2" d="M77.78,103.26c-.08-.05-.16-.08-.24-.09l-.11-.02c-.41-.11-.64.24-.52.77.1.42.4.84.71,1.02.07.04.14.07.21.09l.16.03c.39.09.61-.27.48-.81-.1-.41-.39-.81-.7-1Z"/>
            <path class="cls-2" d="M84.39,100.62c-.1-.41-.39-.82-.7-1-.08-.05-.16-.08-.24-.09l-.11-.02c-.4-.11-.64.24-.52.77.1.42.4.84.72,1.02.07.04.14.07.21.09l.16.03c.39.09.61-.27.48-.81Z"/>
          </g>
        </g>
        <g>
          <rect class="cls-5" x="82.28" y="53.45" width="15.73" height="1.55" transform="translate(-12.98 75.02) rotate(-42.43)"/>
          <path class="cls-5" d="M88.12,52.55c-.61,0-1.26-.19-1.93-.58h0c-2.14-1.24-3.81-4.13-3.8-6.59,0-1.34.5-2.36,1.4-2.87.9-.52,2.04-.43,3.2.24,2.14,1.24,3.82,4.14,3.81,6.6,0,1.34-.5,2.35-1.39,2.87-.39.22-.82.33-1.28.33ZM86.96,50.63c.66.38,1.27.47,1.66.24.39-.22.61-.78.62-1.53,0-1.9-1.38-4.3-3.04-5.26-.65-.38-1.26-.46-1.65-.24-.39.23-.62.79-.62,1.53,0,1.89,1.38,4.29,3.03,5.25h0Z"/>
          <path class="cls-5" d="M94.76,66.6c-.61,0-1.26-.19-1.92-.58-2.14-1.24-3.82-4.14-3.81-6.6,0-1.34.5-2.35,1.4-2.87.9-.52,2.04-.43,3.21.24,2.14,1.23,3.81,4.13,3.8,6.59,0,1.34-.5,2.36-1.4,2.88-.39.22-.82.33-1.28.33ZM91.71,57.78c-.19,0-.37.04-.51.13-.39.22-.62.78-.62,1.53,0,1.9,1.38,4.3,3.03,5.25.66.38,1.26.47,1.66.24.39-.23.62-.79.62-1.53,0-1.89-1.38-4.29-3.03-5.24h0c-.42-.24-.82-.37-1.15-.37Z"/>
        </g>
      </g>
      <rect class="cls-1" width="142" height="142"/>
    </g>
  </g>
</svg>