<svg height="142" viewBox="0 0 142 142" width="142" xmlns="http://www.w3.org/2000/svg"><path d="m0 0h142v142h-142z" fill="none"/><path d="m6495.19 5702.1.11-42.111c-10.182-5.879-19.407-6.425-26.068-2.553l-9.974 5.8c-6.577 3.82-10.659 11.943-10.692 23.5-.067 23.251 16.281 51.575 36.514 63.257 10.19 5.883 19.418 6.423 26.08 2.55v.006l9.979-5.8c6.576-3.821 10.652-11.948 10.686-23.5z" fill="#7c7c7c" transform="translate(-6430.009 -5631)"/><path d="m6515.3 5647.813-9.979 5.8-.119 42.1 36.634 21.151 9.98-5.8c.062-23.255-16.274-51.564-36.516-63.251z" fill="#7c7c7c" transform="translate(-6430.009 -5631)"/><path d="m6505.317 5653.613c20.244 11.687 36.581 40 36.516 63.246l-36.634-21.151z" fill="#ba2d5d" transform="translate(-6430.009 -5631)"/><path d="m6485.32 5665.785-.111 42.111 36.634 21.151c-.066 23.25-16.52 32.626-36.763 20.939s-36.581-40.006-36.514-63.256 16.519-32.63 36.754-20.945z" fill="#d1d1d2" transform="translate(-6430.009 -5631)"/><g fill="#7c7c7c"><path d="m0 0h29.986v1.55h-29.986z" transform="matrix(.85154398 -.52428318 .52428318 .85154398 29.227455 91.994872)"/><path d="m6495.389 5747.139a.761.761 0 0 0 -.24-.092l-.108-.016c-.4-.109-.635.239-.516.774a1.7 1.7 0 0 0 .716 1.024.741.741 0 0 0 .214.086l.162.031c.391.087.608-.268.475-.812a1.637 1.637 0 0 0 -.703-.995z" transform="translate(-6430.009 -5631)"/><path d="m6503.341 5748.7a.719.719 0 0 0 -.239-.092l-.107-.016c-.406-.11-.636.239-.516.773a1.692 1.692 0 0 0 .714 1.025.755.755 0 0 0 .215.086l.162.031c.391.087.609-.269.474-.812a1.638 1.638 0 0 0 -.703-.995z" transform="translate(-6430.009 -5631)"/><path d="m6508.891 5745.39a.8.8 0 0 0 -.239-.093l-.108-.015c-.4-.11-.635.239-.516.774a1.689 1.689 0 0 0 .715 1.024.776.776 0 0 0 .215.086l.162.031c.39.086.608-.269.473-.812a1.636 1.636 0 0 0 -.702-.995z" transform="translate(-6430.009 -5631)"/><path d="m6514.357 5741.993a.785.785 0 0 0 -.24-.093l-.108-.015c-.406-.11-.636.238-.516.773a1.69 1.69 0 0 0 .715 1.024.739.739 0 0 0 .215.087l.161.031c.391.086.609-.269.476-.812a1.636 1.636 0 0 0 -.703-.995z" transform="translate(-6430.009 -5631)"/><path d="m6505.689 5740.81a.783.783 0 0 0 -.239-.093l-.109-.015c-.4-.11-.636.239-.515.773a1.7 1.7 0 0 0 .713 1.025.793.793 0 0 0 .216.086l.163.031c.391.087.607-.269.474-.812a1.641 1.641 0 0 0 -.703-.995z" transform="translate(-6430.009 -5631)"/><path d="m6500.562 5744.059a.794.794 0 0 0 -.241-.092l-.107-.016c-.406-.109-.636.239-.516.774a1.677 1.677 0 0 0 .716 1.024.745.745 0 0 0 .213.087l.162.031c.392.086.609-.27.476-.813a1.645 1.645 0 0 0 -.703-.995z" transform="translate(-6430.009 -5631)"/><path d="m6481.125 5736.546a.794.794 0 0 0 -.239-.092l-.109-.015c-.4-.11-.636.238-.515.773a1.68 1.68 0 0 0 .715 1.024.746.746 0 0 0 .213.087l.162.031c.392.086.608-.27.475-.813a1.64 1.64 0 0 0 -.702-.995z" transform="translate(-6430.009 -5631)"/><path d="m6486.3 5733.319a.813.813 0 0 0 -.241-.093l-.108-.015c-.4-.11-.635.239-.514.774a1.689 1.689 0 0 0 .713 1.024.783.783 0 0 0 .215.086l.162.031c.392.086.608-.269.475-.811a1.639 1.639 0 0 0 -.702-.996z" transform="translate(-6430.009 -5631)"/><path d="m6476.166 5733.319a.8.8 0 0 0 -.239-.093l-.109-.015c-.4-.11-.635.239-.515.774a1.685 1.685 0 0 0 .714 1.024.777.777 0 0 0 .215.086l.162.031c.391.086.609-.269.474-.811a1.639 1.639 0 0 0 -.702-.996z" transform="translate(-6430.009 -5631)"/><path d="m6481.338 5730.091a.8.8 0 0 0 -.239-.092l-.109-.015c-.4-.11-.634.238-.515.773a1.689 1.689 0 0 0 .715 1.024.769.769 0 0 0 .214.087l.163.031c.39.086.608-.27.475-.812a1.648 1.648 0 0 0 -.704-.996z" transform="translate(-6430.009 -5631)"/><path d="m6472.5 5728.963a.742.742 0 0 0 -.241-.092l-.107-.016c-.4-.109-.636.239-.515.774a1.684 1.684 0 0 0 .713 1.024.755.755 0 0 0 .215.086l.162.031c.392.086.608-.269.475-.812a1.637 1.637 0 0 0 -.702-.995z" transform="translate(-6430.009 -5631)"/><path d="m6477.33 5726.094a.791.791 0 0 0 -.241-.092l-.107-.015c-.4-.11-.636.238-.517.773a1.7 1.7 0 0 0 .715 1.024.747.747 0 0 0 .215.086l.162.032c.392.086.608-.27.475-.813a1.637 1.637 0 0 0 -.702-.995z" transform="translate(-6430.009 -5631)"/><path d="m6469.258 5724.563a.751.751 0 0 0 -.239-.093l-.109-.015c-.4-.11-.634.238-.515.773a1.692 1.692 0 0 0 .715 1.024.78.78 0 0 0 .213.087l.164.031c.39.087.608-.269.474-.812a1.636 1.636 0 0 0 -.703-.995z" transform="translate(-6430.009 -5631)"/><path d="m6475.745 5722.014a1.642 1.642 0 0 0 -.7-1 .772.772 0 0 0 -.24-.091l-.109-.016c-.4-.11-.634.238-.514.773a1.685 1.685 0 0 0 .714 1.024.779.779 0 0 0 .215.087l.162.031c.389.09.607-.265.472-.808z" transform="translate(-6430.009 -5631)"/><path d="m6480.763 5719.312.162.031c.392.087.609-.269.475-.812a1.64 1.64 0 0 0 -.7-.995.8.8 0 0 0 -.241-.093l-.107-.015c-.406-.109-.636.239-.516.773a1.692 1.692 0 0 0 .714 1.025.778.778 0 0 0 .213.086z" transform="translate(-6430.009 -5631)"/><path d="m6486.332 5715.681a.761.761 0 0 0 .215.087l.162.031c.392.087.609-.269.476-.812a1.64 1.64 0 0 0 -.7-.995.74.74 0 0 0 -.24-.092l-.108-.016c-.406-.11-.636.238-.516.773a1.692 1.692 0 0 0 .711 1.024z" transform="translate(-6430.009 -5631)"/><path d="m6481.991 5723.091a.789.789 0 0 0 -.241-.093l-.107-.016c-.406-.109-.636.24-.517.774a1.689 1.689 0 0 0 .715 1.024.755.755 0 0 0 .215.087l.162.03c.39.087.608-.268.475-.811a1.646 1.646 0 0 0 -.702-.995z" transform="translate(-6430.009 -5631)"/><path d="m6486.826 5720.221a.763.763 0 0 0 -.241-.091l-.107-.016c-.406-.11-.636.238-.517.773a1.692 1.692 0 0 0 .715 1.024.765.765 0 0 0 .213.087l.164.031c.391.086.609-.269.475-.812a1.649 1.649 0 0 0 -.702-.996z" transform="translate(-6430.009 -5631)"/><path d="m6491.416 5718.945a.781.781 0 0 0 .215.087l.162.03c.392.087.608-.268.475-.812a1.64 1.64 0 0 0 -.7-1 .752.752 0 0 0 -.241-.092l-.108-.016c-.4-.109-.635.239-.516.773a1.694 1.694 0 0 0 .713 1.03z" transform="translate(-6430.009 -5631)"/><path d="m6486.482 5726.844a.74.74 0 0 0 -.24-.092l-.108-.016c-.406-.109-.636.238-.516.773a1.689 1.689 0 0 0 .714 1.024.8.8 0 0 0 .215.088l.162.031c.392.086.609-.27.476-.813a1.639 1.639 0 0 0 -.703-.995z" transform="translate(-6430.009 -5631)"/><path d="m6491.655 5723.617a.763.763 0 0 0 -.241-.093l-.107-.015c-.406-.11-.636.238-.516.773a1.69 1.69 0 0 0 .714 1.024.749.749 0 0 0 .215.086l.162.032c.391.086.609-.269.475-.812a1.641 1.641 0 0 0 -.702-.995z" transform="translate(-6430.009 -5631)"/><path d="m6496.843 5720.457a.734.734 0 0 0 -.239-.092l-.109-.016c-.405-.109-.636.239-.515.774a1.692 1.692 0 0 0 .714 1.024.773.773 0 0 0 .214.086l.162.031c.392.086.61-.268.475-.812a1.638 1.638 0 0 0 -.702-.995z" transform="translate(-6430.009 -5631)"/><path d="m6491.655 5730.194a.767.767 0 0 0 -.241-.091l-.107-.016c-.406-.109-.636.239-.516.773a1.69 1.69 0 0 0 .714 1.025.751.751 0 0 0 .215.086l.162.031c.391.087.609-.269.475-.812a1.644 1.644 0 0 0 -.702-.996z" transform="translate(-6430.009 -5631)"/><path d="m6496.828 5726.968a.765.765 0 0 0 -.241-.093l-.108-.016c-.4-.109-.635.24-.516.774a1.7 1.7 0 0 0 .715 1.025.8.8 0 0 0 .215.086l.162.031c.392.086.608-.269.475-.812a1.639 1.639 0 0 0 -.702-.995z" transform="translate(-6430.009 -5631)"/><path d="m6501.923 5725.379a.72.72 0 0 0 .214.086l.162.032c.391.086.608-.27.475-.812a1.639 1.639 0 0 0 -.7-1 .753.753 0 0 0 -.24-.092l-.108-.016c-.4-.11-.636.239-.515.774a1.694 1.694 0 0 0 .712 1.028z" transform="translate(-6430.009 -5631)"/><path d="m6484.944 5740.721a.788.788 0 0 0 -.239-.092l-.109-.015c-.4-.11-.634.238-.515.773a1.693 1.693 0 0 0 .713 1.024.811.811 0 0 0 .215.087l.162.031c.392.086.609-.27.476-.812a1.638 1.638 0 0 0 -.703-.996z" transform="translate(-6430.009 -5631)"/><path d="m6490.583 5737.27a.753.753 0 0 0 -.24-.093l-.108-.015c-.406-.11-.636.239-.515.773a1.688 1.688 0 0 0 .713 1.025.776.776 0 0 0 .215.086l.162.031c.392.087.609-.269.476-.812a1.645 1.645 0 0 0 -.703-.995z" transform="translate(-6430.009 -5631)"/><path d="m6496.142 5733.786a.755.755 0 0 0 -.241-.092l-.107-.016c-.406-.11-.636.239-.516.774a1.688 1.688 0 0 0 .714 1.024.747.747 0 0 0 .215.086l.162.032c.392.086.608-.27.475-.812a1.648 1.648 0 0 0 -.702-.996z" transform="translate(-6430.009 -5631)"/><path d="m6502.556 5731.321a1.641 1.641 0 0 0 -.7-.995.742.742 0 0 0 -.239-.092l-.108-.016c-.406-.11-.636.238-.516.773a1.683 1.683 0 0 0 .715 1.024.762.762 0 0 0 .214.087l.162.031c.387.087.605-.269.472-.812z" transform="translate(-6430.009 -5631)"/><path d="m6507.277 5728.533a.768.768 0 0 0 .214.088l.162.031c.39.086.608-.27.475-.813a1.635 1.635 0 0 0 -.7-.995.745.745 0 0 0 -.241-.092l-.107-.016c-.406-.109-.636.238-.515.773a1.68 1.68 0 0 0 .712 1.024z" transform="translate(-6430.009 -5631)"/><path d="m6516.669 5735.387a1.653 1.653 0 0 0 -.7-1 .766.766 0 0 0 -.24-.092l-.108-.016c-.405-.109-.635.239-.516.773a1.69 1.69 0 0 0 .715 1.025.767.767 0 0 0 .215.086l.162.032c.387.091.603-.265.472-.808z" transform="translate(-6430.009 -5631)"/><path d="m6510.838 5737.641a.752.752 0 0 0 -.239-.091l-.109-.016c-.405-.11-.636.238-.515.773a1.686 1.686 0 0 0 .715 1.025.776.776 0 0 0 .214.086l.161.031c.392.086.61-.269.475-.812a1.641 1.641 0 0 0 -.702-.996z" transform="translate(-6430.009 -5631)"/><path d="m6489.312 5744.506a.745.745 0 0 0 -.24-.091l-.107-.016c-.406-.11-.636.238-.516.773a1.687 1.687 0 0 0 .714 1.025.784.784 0 0 0 .215.086l.162.031c.391.086.609-.269.474-.812a1.642 1.642 0 0 0 -.702-.996z" transform="translate(-6430.009 -5631)"/><path d="m6495.022 5742.619a.774.774 0 0 0 .213.087l.162.03c.392.087.609-.269.475-.811a1.642 1.642 0 0 0 -.7-1 .757.757 0 0 0 -.241-.091l-.107-.016c-.4-.109-.636.239-.515.774a1.686 1.686 0 0 0 .713 1.027z" transform="translate(-6430.009 -5631)"/><path d="m6501.11 5737.248a.738.738 0 0 0 -.241-.093l-.107-.015c-.4-.109-.636.239-.515.774a1.686 1.686 0 0 0 .715 1.024.742.742 0 0 0 .213.086l.162.031c.392.086.609-.268.475-.812a1.64 1.64 0 0 0 -.702-.995z" transform="translate(-6430.009 -5631)"/><path d="m6506.967 5733.67a.748.748 0 0 0 -.239-.092l-.108-.016c-.405-.109-.635.239-.516.774a1.691 1.691 0 0 0 .715 1.024.71.71 0 0 0 .215.086l.161.031c.391.087.609-.268.476-.811a1.641 1.641 0 0 0 -.704-.996z" transform="translate(-6430.009 -5631)"/><path d="m6513.582 5731.037a1.636 1.636 0 0 0 -.7-1 .74.74 0 0 0 -.241-.092l-.107-.016c-.4-.11-.636.238-.516.774a1.7 1.7 0 0 0 .716 1.024.742.742 0 0 0 .213.086l.162.032c.391.09.608-.266.473-.808z" transform="translate(-6430.009 -5631)"/></g><path d="m0 0h15.729v1.55h-15.729z" fill="#fff" transform="matrix(.73798441 -.67481776 .67481776 .73798441 82.986518 58.350704)"/><path d="m6517.307 5682.966a3.907 3.907 0 0 1 -1.931-.578 8.282 8.282 0 0 1 -3.8-6.591 2.853 2.853 0 0 1 4.6-2.637 8.286 8.286 0 0 1 3.81 6.6 3.121 3.121 0 0 1 -1.393 2.869 2.535 2.535 0 0 1 -1.286.337zm-1.155-1.919a1.72 1.72 0 0 0 1.664.24 1.7 1.7 0 0 0 .617-1.527 6.8 6.8 0 0 0 -3.035-5.258 1.727 1.727 0 0 0 -1.654-.236 1.707 1.707 0 0 0 -.622 1.535 6.8 6.8 0 0 0 3.03 5.246z" fill="#fff" transform="translate(-6430.009 -5631)"/><path d="m6523.946 5697.014a3.874 3.874 0 0 1 -1.921-.575 8.284 8.284 0 0 1 -3.81-6.6 2.853 2.853 0 0 1 4.608-2.625 8.269 8.269 0 0 1 3.8 6.588 3.134 3.134 0 0 1 -1.4 2.877 2.546 2.546 0 0 1 -1.277.335zm-3.051-8.824a1.02 1.02 0 0 0 -.511.126 1.7 1.7 0 0 0 -.619 1.527 6.8 6.8 0 0 0 3.035 5.255 1.727 1.727 0 0 0 1.655.237 1.707 1.707 0 0 0 .621-1.535 6.78 6.78 0 0 0 -3.029-5.242 2.378 2.378 0 0 0 -1.147-.368z" fill="#fff" transform="translate(-6430.009 -5631)"/></svg>