<svg height="54.542" viewBox="0 0 54.542 54.542" width="54.542" xmlns="http://www.w3.org/2000/svg"><rect fill="#ff1346" height="54.542" rx="5.142" width="54.542"/><g fill="#fff" stroke="#fff" stroke-miterlimit="10" stroke-width=".25" transform="translate(-311.035 -2972.771)"><path d="m338.307 3018.121a18.078 18.078 0 1 1 18.076-18.08 18.1 18.1 0 0 1 -18.076 18.08zm0-35.1a17.023 17.023 0 1 0 17.022 17.022 17.042 17.042 0 0 0 -17.022-17.024zm0 19.6a2.573 2.573 0 0 1 -2.574-2.574 2.572 2.572 0 1 1 3.093 2.52 2.484 2.484 0 0 1 -.519.048zm0-4.09a1.479 1.479 0 0 0 -.328.037 1.517 1.517 0 0 0 .629 2.967h.006a1.518 1.518 0 0 0 -.307-3z"/><path d="m338.306 2985.819a.527.527 0 0 1 -.527-.527v-2.8a.528.528 0 0 1 1.055 0v2.8a.527.527 0 0 1 -.528.527z"/><path d="m330.932 2987.795a.525.525 0 0 1 -.457-.263l-1.4-2.426a.527.527 0 1 1 .913-.527l1.4 2.425a.526.526 0 0 1 -.456.791z"/><path d="m325.532 2993.194a.527.527 0 0 1 -.264-.07l-2.425-1.4a.528.528 0 0 1 .527-.914l2.426 1.4a.527.527 0 0 1 -.264.984z"/><path d="m323.556 3000.57h-2.8a.528.528 0 0 1 0-1.055h2.8a.528.528 0 0 1 0 1.055z"/><path d="m323.107 3009.345a.527.527 0 0 1 -.264-.984l2.425-1.4a.528.528 0 0 1 .528.914l-2.426 1.4a.523.523 0 0 1 -.263.07z"/><path d="m329.53 3015.769a.527.527 0 0 1 -.456-.791l1.4-2.425a.527.527 0 0 1 .913.527l-1.4 2.426a.527.527 0 0 1 -.457.263z"/><path d="m338.306 3018.121a.527.527 0 0 1 -.527-.527v-2.8a.528.528 0 0 1 1.055 0v2.8a.527.527 0 0 1 -.528.527z"/><path d="m347.083 3015.769a.525.525 0 0 1 -.457-.263l-1.4-2.426a.527.527 0 0 1 .913-.527l1.4 2.425a.529.529 0 0 1 -.193.721.523.523 0 0 1 -.263.07z"/><path d="m353.506 3009.345a.529.529 0 0 1 -.264-.07l-2.425-1.4a.528.528 0 0 1 .527-.914l2.426 1.4a.527.527 0 0 1 -.264.984z"/><path d="m355.858 3000.57h-2.8a.528.528 0 1 1 0-1.055h2.8a.528.528 0 0 1 0 1.055z"/><path d="m351.081 2993.194a.527.527 0 0 1 -.264-.984l2.425-1.4a.528.528 0 1 1 .528.914l-2.426 1.4a.523.523 0 0 1 -.263.07z"/><path d="m345.681 2987.795a.526.526 0 0 1 -.456-.791l1.4-2.425a.527.527 0 1 1 .913.527l-1.4 2.426a.527.527 0 0 1 -.457.263z"/><path d="m338.307 3002.615a2.573 2.573 0 0 1 -2.574-2.574 2.572 2.572 0 1 1 3.09 2.52 2.415 2.415 0 0 1 -.516.054zm0-4.09a1.479 1.479 0 0 0 -.328.037 1.5 1.5 0 1 0 .328-.037z"/><path d="m339.824 2999.2a.527.527 0 0 1 -.363-.91l5.935-5.631a.527.527 0 0 1 .726.765l-5.935 5.632a.528.528 0 0 1 -.363.144z"/><path d="m334.94 3003.831a.527.527 0 0 1 -.362-.91l1.917-1.817a.527.527 0 0 1 .726.765l-1.918 1.818a.528.528 0 0 1 -.363.144z"/><path d="m341.18 3014.042a.528.528 0 0 1 -.516-.416l-2.461-11.471a.527.527 0 1 1 1.031-.221l2.462 11.47a.529.529 0 0 1 -.405.627.606.606 0 0 1 -.111.011z"/><path d="m337.863 2998.576a.527.527 0 0 1 -.515-.417l-.587-2.726a.527.527 0 0 1 1.031-.222l.587 2.727a.527.527 0 0 1 -.4.626.52.52 0 0 1 -.116.012z"/></g></svg>