<svg height="54.542" viewBox="0 0 54.542 54.542" width="54.542" xmlns="http://www.w3.org/2000/svg"><rect fill="#ff1346" height="54.542" rx="5.142" width="54.542"/><g fill="#fff" transform="translate(-642.694 -2972.771)"><path d="m680.448 3002.885h-6.969a.518.518 0 0 1 -.518-.518v-4.648a.518.518 0 0 1 .518-.519h6.969a.518.518 0 0 1 .518.519v4.648a.518.518 0 0 1 -.518.518zm-6.448-1.036h5.933v-3.612h-5.933z"/><path d="m687.447 3017.337h-6.969a.518.518 0 0 1 -.518-.518v-4.648a.518.518 0 0 1 .518-.519h6.969a.518.518 0 0 1 .518.519v4.648a.518.518 0 0 1 -.518.518zm-6.447-1.037h5.933v-3.612h-5.933z"/><path d="m673.45 3017.337h-6.97a.517.517 0 0 1 -.517-.518v-4.648a.517.517 0 0 1 .517-.519h6.97a.518.518 0 0 1 .518.519v4.648a.518.518 0 0 1 -.518.518zm-6.45-1.037h5.933v-3.612h-5.933z"/><path d="m659.452 3017.337h-6.969a.518.518 0 0 1 -.518-.518v-4.648a.518.518 0 0 1 .518-.519h6.969a.518.518 0 0 1 .518.519v4.648a.518.518 0 0 1 -.518.518zm-6.452-1.037h5.933v-3.612h-5.933z"/><path d="m666.451 3002.885h-6.969a.518.518 0 0 1 -.518-.518v-4.648a.518.518 0 0 1 .518-.519h6.969a.518.518 0 0 1 .518.519v4.648a.518.518 0 0 1 -.518.518zm-6.451-1.036h5.933v-3.612h-5.933z"/><path d="m669.965 2993.335a.518.518 0 0 1 -.518-.519v-4.9a.518.518 0 1 1 1.036 0v4.9a.518.518 0 0 1 -.518.519z"/><path d="m662.966 2998.237a.518.518 0 0 1 -.518-.518v-4.9a.518.518 0 0 1 1.036 0v4.9a.518.518 0 0 1 -.518.518z"/><path d="m676.964 2998.237a.518.518 0 0 1 -.518-.518v-4.9a.518.518 0 0 1 1.036 0v4.9a.518.518 0 0 1 -.518.518z"/><path d="m676.964 2993.335h-14a.518.518 0 0 1 0-1.037h14a.518.518 0 0 1 0 1.037z"/><path d="m662.966 3007.786a.517.517 0 0 1 -.518-.518v-4.9a.518.518 0 0 1 1.036 0v4.9a.517.517 0 0 1 -.518.518z"/><path d="m655.968 3012.689a.518.518 0 0 1 -.518-.518v-4.9a.518.518 0 1 1 1.036 0v4.9a.518.518 0 0 1 -.518.518z"/><path d="m669.965 3012.689a.518.518 0 0 1 -.518-.518v-4.9a.518.518 0 1 1 1.036 0v4.9a.518.518 0 0 1 -.518.518z"/><path d="m669.965 3007.786h-14a.518.518 0 1 1 0-1.036h14a.518.518 0 1 1 0 1.036z"/><path d="m676.964 3007.786a.517.517 0 0 1 -.518-.518v-4.9a.518.518 0 0 1 1.036 0v4.9a.517.517 0 0 1 -.518.518z"/><path d="m683.962 3012.689a.518.518 0 0 1 -.518-.518v-4.9a.518.518 0 1 1 1.036 0v4.9a.518.518 0 0 1 -.518.518z"/><path d="m683.962 3007.786h-14a.518.518 0 1 1 0-1.036h14a.518.518 0 1 1 0 1.036z"/><path d="m673.45 2988.432h-6.97a.517.517 0 0 1 -.517-.518v-4.648a.517.517 0 0 1 .517-.518h6.97a.518.518 0 0 1 .518.518v4.648a.518.518 0 0 1 -.518.518zm-6.45-1.032h5.933v-3.612h-5.933z"/></g></svg>