<svg height="142" viewBox="0 0 142 142" width="142" xmlns="http://www.w3.org/2000/svg"><path d="m0 0h142v142h-142z" fill="none"/><path d="m5839.252 5098.326c-26.595 0-48.23-12.682-48.23-28.273s21.635-28.273 48.23-28.273 48.229 12.682 48.229 28.273-21.635 28.273-48.229 28.273zm0-55c-25.739 0-46.68 11.988-46.68 26.723s20.941 26.723 46.68 26.723 46.679-11.988 46.679-26.723-20.94-26.719-46.679-26.719z" fill="#7c7c7c" transform="translate(-5767.009 -4958.592)"/><path d="m0 0h72.127v3.1h-72.127z" fill="#7c7c7c" transform="matrix(.00296706 -.9999956 .9999956 .00296706 98.545461 127.968285)"/><path d="m5841.612 4986.828v-.007s-8.237-3.932-14.189-3.936a23.4 23.4 0 0 0 -9.563 1.67c-.76.322-3.2 1.837-3.615 4.063l-6.164 34.168 4.735 4 5.744-3.337-2.192 40.851 6.709 3.873 6.588-3.829 2.378-15.42 3.317 26.341 6.707 3.873 6.59-3.829-4.973-51.046-1.087-19.642 25.7 13.353 6.5-3.775.215-5.387z" fill="#d1d1d2" transform="translate(-5767.009 -4958.592)"/><path d="m5842.6 5004.619-1.573-.817 1.043 75.334 6.589-3.829-4.973-51.046z" fill="#7c7c7c" transform="translate(-5767.009 -4958.592)"/><path d="m5868.51 5012.584 6.5-3.774-.215 5.388-6.5 3.775z" fill="#7c7c7c" transform="translate(-5767.009 -4958.592)"/><path d="m0 0h41.883v3.1h-41.883z" fill="#7c7c7c" transform="matrix(.00293215 -.9999957 .9999957 .00293215 98.776934 50.426989)"/><g transform="translate(-5767.009 -4958.592)"><path d="m5895.262 4988-.063 22.537a8.876 8.876 0 0 1 -4-3.893 7.748 7.748 0 0 0 -3.54-3.465 16.48 16.48 0 0 0 -5.993-2.038 18.949 18.949 0 0 1 -6.733-2.3 8.874 8.874 0 0 1 -4-3.894 7.718 7.718 0 0 0 -3.54-3.465l.065-22.538a7.716 7.716 0 0 1 3.542 3.456 8.878 8.878 0 0 0 4 3.894 18.9 18.9 0 0 0 6.733 2.3 16.517 16.517 0 0 1 6 2.038 7.748 7.748 0 0 1 3.537 3.465 8.9 8.9 0 0 0 3.992 3.903z" fill="#ba2d5d"/><path d="m5832.515 4990.548 1.971-4.473-7.669-3.19 1.493 5.235-2.135 21.858 4.172 7.592 4.2-2.757z" fill="#ba2d5d"/><path d="m5829.618 5064.37-6.537 3.8 6.3-39.753 2.6 20.653z" fill="#7c7c7c"/><path d="m5818.541 5023.45-5.732 3.331 4.962-23.9 1.421 11.313z" fill="#7c7c7c"/><path d="m5841.612 4986.828v-.007a53.769 53.769 0 0 0 -8.739-3.14l-3.112 1.326 20.621 7.593z" fill="#7c7c7c"/><path d="m5823.458 4969.4c-.315-4.856 3.939-8.814 8.807-8.812s9.122 3.956 8.8 8.812a76.58 76.58 0 0 1 -1.062 8.318c-.915 4.361-3.469 7.741-7.745 7.739s-7.081-3.641-7.745-7.743c-.328-2.064-.923-6.214-1.055-8.314z" fill="#d1d1d2"/><path d="m5832.265 4960.592a9.03 9.03 0 0 0 -1.258.1c3.174.734 5.632 5.813 5.632 11.984 0 6.672-2.874 12.081-6.421 12.081a3.68 3.68 0 0 1 -1.715-.45v.021a6.785 6.785 0 0 0 3.759 1.132c4.276 0 6.83-3.378 7.745-7.739a76.58 76.58 0 0 0 1.062-8.318c.318-4.855-3.943-8.811-8.804-8.811z" fill="#7c7c7c"/></g></svg>