<svg height="142" viewBox="0 0 142 142" width="142" xmlns="http://www.w3.org/2000/svg"><path d="m0 0h142v142h-142z" fill="none"/><path d="m5888.4 4306.06-65.514-38.1c-4.65 2.685-8.42 9.213-8.4 14.558l.209 62.665a16.134 16.134 0 0 1 -7.31 12.662l65.514 38.1a16.14 16.14 0 0 0 7.311-12.661l-.209-62.665c-.024-5.346 3.743-11.873 8.399-14.559z" fill="#d1d1d2" transform="translate(-5761.009 -4267)"/><path d="m0 0h1.55v41.279h-1.55z" fill="#7c7c7c" transform="matrix(.5 -.8660254 .8660254 .5 66.774857 48.157446)"/><path d="m0 0h1.55v41.279h-1.55z" fill="#7c7c7c" transform="matrix(.5 -.8660254 .8660254 .5 66.748419 56.621654)"/><path d="m5870.809 4314.973-.167 13.555-46.794-27.039.165-13.555z" fill="#ba2d5d" transform="translate(-5761.009 -4267)"/><path d="m0 0h1.55v19.287h-1.55z" fill="#fff" transform="matrix(.5 -.8660254 .8660254 .5 66.775554 31.098652)"/><path d="m0 0h1.55v13.936h-1.55z" fill="#7c7c7c" transform="matrix(.49930455 -.86642655 .86642655 .49930455 66.773413 73.799801)"/><path d="m0 0h1.55v13.964h-1.55z" fill="#7c7c7c" transform="matrix(.49933479 -.86640912 .86640912 .49933479 66.747356 82.387363)"/><path d="m0 0h1.55v27.265h-1.55z" fill="#7c7c7c" transform="matrix(.50001511 -.86601668 .86601668 .50001511 66.747994 65.209247)"/><g transform="translate(-5761.009 -4267)"><path d="m5815.058 4396.817 17.424 10.959a3.724 3.724 0 0 0 5.163-.929l1.469-2.337-1.313-.826-1.469 2.338a2.179 2.179 0 0 1 -3.025.442l-17.424-10.959z" fill="#7c7c7c"/><path d="m5776.113 4360.238c4.012.687 13.824 2.4 14.06 2.554l54.232 34.07a5.305 5.305 0 0 1 2.478 4.8 5.278 5.278 0 0 1 -2.923 4.456 5.471 5.471 0 0 1 -2.574.565 5.313 5.313 0 0 1 -2.639-.812l-54.228-34.071c-.336-.214-8.406-11.562-8.406-11.562z" fill="#ba2d5d"/><path d="m5824.883 4384.6a6.16 6.16 0 0 1 .031.712 10.47 10.47 0 0 1 -5.232 8.082c-.165.082-.327.126-.489.191l-1.928-1.213a2.915 2.915 0 0 0 1.721-.363 9.034 9.034 0 0 0 4.378-6.781 3.175 3.175 0 0 0 -.353-1.8c.632.39 1.254.78 1.872 1.172z" fill="#7c7c7c"/><path d="m5862.642 4366.27a2.106 2.106 0 0 0 -.627-.592.723.723 0 0 0 -.9.007l-1.084 1.095-1.538-2.746a2.3 2.3 0 0 0 -.8-.854 1.047 1.047 0 0 0 -.1-.052.663.663 0 0 0 -.823.106l-.984 1.185-.7-4.665a2.492 2.492 0 0 0 -.928-1.549 1.523 1.523 0 0 0 -.142-.092c-.428-.248-.809-.193-1 .14l-1.823 3.287-.378-9.969a2.488 2.488 0 0 0 -.908-1.709 1.652 1.652 0 0 0 -.189-.128c-.437-.252-.846-.185-1.02.193l-2.634 5.861 2.036 2.133.739-1.647.35 9.224a2.463 2.463 0 0 0 .878 1.692l.217.148c.416.24.8.19.992-.145l2.272-4.088.593 3.954a2.461 2.461 0 0 0 .868 1.5 1.6 1.6 0 0 0 .21.145.688.688 0 0 0 .92-.051l1.721-2.071 1.49 2.648a2.279 2.279 0 0 0 .8.853l.068.037a.7.7 0 0 0 .823-.049l1.223-1.242.958 1.328 1.253-1.361z" fill="#7c7c7c"/></g></svg>