<svg height="54.542" viewBox="0 0 54.542 54.542" width="54.542" xmlns="http://www.w3.org/2000/svg"><rect fill="#ff1346" height="54.542" rx="5.142" width="54.542"/><g fill="#fff" transform="translate(-958.101 -2972.771)"><path d="m987.629 3013.5a2.107 2.107 0 0 1 -1.45-.576l-1.129-1.087a.6.6 0 0 1 .838-.868l1.122 1.082a.91.91 0 0 0 1.256-.018.912.912 0 0 0 -.06-1.359l-1.83-1.668a.6.6 0 0 1 .8-.9l2.9 2.514a.914.914 0 0 0 1.178-.058 1.3 1.3 0 0 0 -.078-1.956l-4.576-3.706a.6.6 0 0 1 .759-.936l4.895 3.968a1.236 1.236 0 0 0 1.757-.2.915.915 0 0 0 -.1-1.223c-.063-.048-.125-.1-.186-.151l-4.569-4.041a.6.6 0 0 1 .8-.9l4.716 4.157a1.7 1.7 0 0 0 2.308-.336 1.175 1.175 0 0 0 -.187-1.56l-.011-.01c-.021-.017-.041-.034-.063-.05a8608.246 8608.246 0 0 1 -9.122-6.749l-2.535-.094-2.286 2.975a2.33 2.33 0 0 1 -2.584.791 2.4 2.4 0 0 1 -1.561-2.986c.4-1.262.932-2.967 1.28-4.084a2.672 2.672 0 0 1 2-1.818l5.467-1.16a5.018 5.018 0 0 1 2.248.04l3.346.837a3.784 3.784 0 0 0 2.552-.26l5.121-2.457a.6.6 0 0 1 .8.275l4.765 9.583a.6.6 0 0 1 -.26.8l-7.842 4.1a2.4 2.4 0 0 1 -.162 2.551 2.886 2.886 0 0 1 -2.033 1.113 2.945 2.945 0 0 1 -.506 0 2.108 2.108 0 0 1 -.436 1.393 2.427 2.427 0 0 1 -1.651.933 2.627 2.627 0 0 1 -.459.011c0 .039.006.079.007.118a2.507 2.507 0 0 1 -.782 1.919 2.075 2.075 0 0 0 -2.969 1.457 2.115 2.115 0 0 1 -1.488.594zm-2.86-17.957h.023l3.031.113a.6.6 0 0 1 .337.118s6.09 4.51 9.076 6.715l7.623-3.985-4.237-8.522-4.584 2.2a5 5 0 0 1 -3.366.342l-3.347-.837a3.8 3.8 0 0 0 -1.7-.03l-5.468 1.16a1.467 1.467 0 0 0 -1.1 1 1207.65 1207.65 0 0 1 -1.28 4.09 1.167 1.167 0 0 0 .755 1.466 1.136 1.136 0 0 0 1.283-.37l2.475-3.222a.6.6 0 0 1 .479-.235z"/><path d="m972.965 3004.271a.594.594 0 0 1 -.325-.095l-7.885-5.059a.6.6 0 0 1 -.2-.8l4.974-9.059a.6.6 0 0 1 .8-.247l3.864 1.983a4.075 4.075 0 0 0 3.614.067l2.369-1.107a1.6 1.6 0 0 1 1.174-.073l3.342 1.083a.6.6 0 1 1 -.371 1.147l-3.342-1.082a.4.4 0 0 0 -.293.018l-2.369 1.107a5.275 5.275 0 0 1 -4.675-.087l-3.342-1.715-4.421 8.051 7.411 4.755a.6.6 0 0 1 -.326 1.11z"/><path d="m974.145 3007.183a2.236 2.236 0 0 1 -1.508-.583 2.262 2.262 0 0 1 -.192-3.181c.434-.488.93-1.038 1.348-1.5a2.25 2.25 0 0 1 3.363 2.99l-1.313 1.5a2.232 2.232 0 0 1 -1.563.766 1.04 1.04 0 0 1 -.135.008zm-.8-2.962a1.047 1.047 0 0 0 .08 1.467 1.045 1.045 0 0 0 1.509-.069l1.312-1.5a1.044 1.044 0 0 0 -1.56-1.388c-.416.46-.909 1.007-1.341 1.493z"/><path d="m983.9 3012.976a2.228 2.228 0 0 1 -1.418-.508 2.262 2.262 0 0 1 -.356-3.167c.408-.509.875-1.084 1.268-1.567a2.25 2.25 0 0 1 3.513 2.812l-1.232 1.57a2.236 2.236 0 0 1 -1.524.846 2.353 2.353 0 0 1 -.251.014zm1.237-4.865a1.039 1.039 0 0 0 -.807.384c-.392.481-.856 1.053-1.263 1.561a1.046 1.046 0 0 0 .156 1.46 1.06 1.06 0 0 0 .8.247 1.032 1.032 0 0 0 .707-.393l1.233-1.569a1.045 1.045 0 0 0 -.822-1.69z"/><path d="m976.339 3010.439a2.507 2.507 0 0 1 -1.751-.714l-.053-.051a2.5 2.5 0 0 1 -.133-3.431 748.506 748.506 0 0 0 3.135-3.614 2.475 2.475 0 0 1 1.771-.863 2.448 2.448 0 0 1 1.848.688 2.508 2.508 0 0 1 .188 3.422l-3.092 3.672a2.513 2.513 0 0 1 -1.794.889zm3.092-7.47h-.065a1.279 1.279 0 0 0 -.916.446 750.823 750.823 0 0 1 -3.141 3.62 1.3 1.3 0 0 0 .071 1.776l.052.051a1.3 1.3 0 0 0 1.9-.092l3.091-3.673a1.3 1.3 0 0 0 -.1-1.772 1.278 1.278 0 0 0 -.892-.356z"/><path d="m979.979 3012.426a2.556 2.556 0 0 1 -1.729-.675l-.094-.087a2.545 2.545 0 0 1 -.231-3.5l2.989-3.594a2.546 2.546 0 0 1 3.959 3.2l-2.895 3.682a2.551 2.551 0 0 1 -1.8.964c-.066.007-.133.01-.199.01zm1.862-7.084-2.989 3.594a1.339 1.339 0 0 0 .121 1.841l.094.087a1.339 1.339 0 0 0 1.963-.156l2.895-3.681a1.34 1.34 0 0 0 -2.084-1.685z"/></g></svg>