<svg height="54.542" viewBox="0 0 54.542 54.542" width="54.542" xmlns="http://www.w3.org/2000/svg"><rect fill="#ff1346" height="54.542" rx="5.142" width="54.542"/><g fill="#fff" transform="translate(-867.517 -2097.402)"><path d="m913.523 2124.387a18.714 18.714 0 0 0 -18.945-18.446.55.55 0 0 0 -.128 0 18.714 18.714 0 0 0 -18.4 18.774c0 .068 0 .135.005.2v.029a18.718 18.718 0 0 0 18.735 18.451h.209a.548.548 0 0 0 .055.011.607.607 0 0 0 .071-.014 18.718 18.718 0 0 0 18.407-18.775c0-.068-.005-.135-.006-.2a.289.289 0 0 0 -.003-.03zm-1.342-1.58-7.812-7.771a13.594 13.594 0 0 0 -14.339-3.077l4.748-4.774h.011a17.477 17.477 0 0 1 17.392 15.622zm-8.646 10.561a12.331 12.331 0 1 1 -.047-17.446 12.351 12.351 0 0 1 .047 17.446zm-21.149-21.035a17.411 17.411 0 0 1 10.528-5.045l-7.758 7.8a13.594 13.594 0 0 0 -3.078 14.338l-4.781-4.755a17.377 17.377 0 0 1 5.089-12.338zm-4.991 14.2 7.813 7.771a13.556 13.556 0 0 0 14.338 3.078l-4.747 4.772a17.474 17.474 0 0 1 -17.4-15.621zm29.795 10.467a17.407 17.407 0 0 1 -10.528 5.045l7.759-7.8a13.594 13.594 0 0 0 3.077-14.338l4.781 4.755a17.372 17.372 0 0 1 -5.089 12.338z"/><path d="m891.394 2119.425v3.787h-4.916a.624.624 0 0 0 -.624.624v6.345a.624.624 0 0 0 .624.624h16.622a.624.624 0 0 0 .625-.624v-7.5a.624.624 0 0 0 -.625-.624h-4.915v-2.629a.625.625 0 0 0 -.625-.625h-5.54a.624.624 0 0 0 -.626.622zm-4.291 5.036h4.291v5.095h-4.294zm15.37-1.158v6.253h-4.29v-6.256zm-9.83-3.254h4.29v9.507h-4.29z"/></g></svg>