<?xml version="1.0" encoding="UTF-8"?>
<svg id="_レイヤー_2" data-name="レイヤー 2" xmlns="http://www.w3.org/2000/svg" viewBox="0 0 142 142">
  <defs>
    <style>
      .cls-1 {
        fill: none;
      }

      .cls-2 {
        fill: #7c7c7c;
      }

      .cls-3 {
        fill: #d1d1d2;
      }

      .cls-4 {
        fill: #ba2d5d;
      }

      .cls-5 {
        fill: #fff;
      }

      .cls-6 {
        fill: #9eabb1;
      }
    </style>
  </defs>
  <g id="_デザイン" data-name="デザイン">
    <g>
      <g>
        <polygon class="cls-6" points="23.16 82.41 17.87 85.49 22.45 63.42 23.76 73.87 23.16 82.41"/>
        <g>
          <path class="cls-3" d="M53.87,89.4l8.68-11.85-9.56-21.36c-1.49-2.72-3.65-5.13-6.04-6.52l-2.46-1.16s-2.37-1.1-5.41-2.08c-.93.56-2.01.9-3.26.9-2.07,0-3.75-.94-4.99-2.36-3.2.04-5.79.46-8.31,1.53-.7.3-2.96,1.7-3.34,3.75l-5.69,31.55,4.37,3.69,5.3-3.08-2.02,37.72,6.2,3.58,6.08-3.54,2.2-14.24,3.06,24.32,6.19,3.58,6.09-3.54-3.98-40.88,1.84,2.91,5.04-2.93h0ZM46.38,83.16l-.82-14.85,5.43,9.03-4.38,8.08-.22-2.25h0Z"/>
          <path class="cls-2" d="M122.87,37.17l-48.91-28.24c-1.57-.9-2.99-.98-4.02-.39l-6.09,3.39s0,0,.01,0c-1.02.59-1.66,1.84-1.66,3.61l-.04,15.61-10.55,11.06,10.5,6.06-.02,7.99c-.01,3.56,2.52,7.96,5.63,9.75l48.91,28.24c1.78,1.03,3.17.91,4.39.16-.14.09,5.71-3.17,5.71-3.17,1.02-.59,1.65-1.84,1.65-3.61l.12-40.73c.01-3.56-2.52-7.95-5.63-9.74h0Z"/>
          <path class="cls-4" d="M116.79,40.56l-48.91-28.24c-3.11-1.79-5.66-.34-5.67,3.22l-.04,15.61-10.55,11.06,10.5,6.06-.02,7.99c-.01,3.56,2.52,7.96,5.63,9.75l48.91,28.24c3.11,1.79,5.66.33,5.67-3.23l.11-40.73c.01-3.56-2.52-7.95-5.63-9.74h0Z"/>
          <polygon class="cls-2" points="33.39 120.2 27.35 123.71 33.17 87 35.57 106.07 33.39 120.2"/>
          <polygon class="cls-2" points="45.61 87.24 46.6 85.42 46.38 83.16 45.56 68.31 43.94 65.52 44.89 133.84 50.97 130.3 46.99 89.42 45.61 87.24"/>
          <path class="cls-3" d="M27.7,32.51c-.29-4.48,3.64-8.14,8.13-8.14,4.49,0,8.42,3.65,8.13,8.14-.12,1.93-.58,5.78-.98,7.68-.84,4.03-3.2,7.15-7.15,7.15-3.95,0-6.54-3.36-7.15-7.15-.31-1.91-.86-5.75-.98-7.68h0Z"/>
          <path class="cls-2" d="M62.56,77.55l-9.56-21.36c-1.49-2.72-3.65-5.13-6.04-6.52l-2.46-1.16s-2.37-1.1-5.42-2.07c-.93.55-2,.89-3.25.89-.77,0-1.48-.16-2.14-.4h-.03s11.78,5.01,14.45,9.16c2.79,4.33,11.88,20.32,12.56,21.51l-11.84,14.73,5.04-2.93,8.68-11.85h0Z"/>
          <path class="cls-2" d="M35.83,24.37c-.39,0-.78.04-1.16.09,2.93.68,5.2,5.37,5.2,11.07,0,6.16-2.65,11.16-5.93,11.16-.55,0-1.08-.15-1.58-.42v.02c.99.65,2.15,1.05,3.47,1.05,3.95,0,6.31-3.12,7.15-7.15.4-1.9.86-5.75.98-7.68.29-4.48-3.64-8.14-8.13-8.14Z"/>
          <path class="cls-4" d="M37.52,48.74c-2.2-1.1-3.85-1.8-3.85-1.8h.02s-.05-.03-.08-.04c-.44-.16-.84-.37-1.23-.61,0,0,0,0-.01,0h0c-.55-.36-1.05-.8-1.49-1.31l-.07-.03,1.38,4.83-1.97,20.18,3.85,7.01,3.88-2.55-1.88-22.41,1.45-3.29h0Z"/>
          <path class="cls-5" d="M81.89,43.17c-1.67-.97-3.03-.19-3.03,1.73,0,1.92,1.34,4.26,3.01,5.22s3.03.19,3.03-1.73c0-1.92-1.34-4.26-3.01-5.22ZM92.36,49.22c-1.67-.97-3.03-.19-3.03,1.73,0,1.92,1.34,4.26,3.01,5.22,1.66.96,3.03.19,3.03-1.73,0-1.92-1.35-4.26-3.01-5.22ZM102.83,55.26c-1.66-.96-3.03-.19-3.03,1.73,0,1.92,1.35,4.26,3.01,5.22,1.67.97,3.03.19,3.03-1.73,0-1.92-1.34-4.26-3.01-5.22Z"/>
        </g>
      </g>
      <rect class="cls-1" width="142" height="142"/>
    </g>
  </g>
</svg>