<svg height="22.666" viewBox="0 0 280.185 22.666" width="280.185" xmlns="http://www.w3.org/2000/svg"><g transform="translate(-5472.411 -33.007)"><g fill="#323333"><path d="m5488.721 48.967a6.09 6.09 0 0 1 -1.059 3.584 6.7 6.7 0 0 1 -2.955 2.318 11.048 11.048 0 0 1 -4.348.8q-.686 0-1.68-.088a18.914 18.914 0 0 1 -2.644-.485 20.8 20.8 0 0 1 -3.433-1.179v-5.412a24.147 24.147 0 0 0 3.289 1.721 8.8 8.8 0 0 0 3.464.685 3.023 3.023 0 0 0 2.206-.566 1.654 1.654 0 0 0 .5-1.059 1.8 1.8 0 0 0 -.86-1.505 12.248 12.248 0 0 0 -2.5-1.267 19.733 19.733 0 0 1 -3.185-1.664 7.539 7.539 0 0 1 -2.238-2.254 5.8 5.8 0 0 1 -.868-3.2 5.86 5.86 0 0 1 3.552-5.527 10.147 10.147 0 0 1 4.4-.86 15.333 15.333 0 0 1 3.417.359 14.769 14.769 0 0 1 2.588.8 10.31 10.31 0 0 1 1.4.7v5.176a18.265 18.265 0 0 0 -3.019-1.736 8.436 8.436 0 0 0 -3.56-.764 2.743 2.743 0 0 0 -1.8.478 1.493 1.493 0 0 0 -.557 1.178 1.447 1.447 0 0 0 .557 1.131 9.751 9.751 0 0 0 1.991 1.163 39.674 39.674 0 0 1 4.078 2.15 8.068 8.068 0 0 1 2.4 2.206 5.33 5.33 0 0 1 .864 3.117z"/><path d="m5514.746 44.332a11.615 11.615 0 0 1 -1.426 5.687 10.3 10.3 0 0 1 -4.244 4.125 14.236 14.236 0 0 1 -6.865 1.529 13.952 13.952 0 0 1 -6.929-1.593 10.349 10.349 0 0 1 -4.213-4.189 11.948 11.948 0 0 1 -.008-11.126 10.26 10.26 0 0 1 4.213-4.173 14.064 14.064 0 0 1 6.937-1.585 15.332 15.332 0 0 1 5.455.908 10.919 10.919 0 0 1 3.942 2.461 10.362 10.362 0 0 1 2.342 3.616 11.968 11.968 0 0 1 .796 4.34zm-6.785 0a6.735 6.735 0 0 0 -.367-2.27 4.847 4.847 0 0 0 -1.107-1.784 5.126 5.126 0 0 0 -1.808-1.178 6.687 6.687 0 0 0 -2.468-.422 5.669 5.669 0 1 0 0 11.325 6.281 6.281 0 0 0 3.121-.725 4.815 4.815 0 0 0 1.96-2.007 6.262 6.262 0 0 0 .669-2.939z"/><path d="m5539.338 55.386h-8.124l-8.441-10.337v10.337h-6.658v-22.076h6.658v9.875l8-9.875h7.227l-8.219 10.337z"/><path d="m5563.339 55.386h-8.123l-8.442-10.337v10.337h-6.658v-22.076h6.658v9.875l8-9.875h7.226l-8.219 10.337z"/><path d="m5571.46 55.386h-6.66v-22.076h6.658z"/><path d="m5598.887 55.386h-5.926l-11.452-12.3v12.3h-6.594v-22.076h5.909l11.421 12.233v-12.233h6.642z"/></g><g fill="#db1f32"><path d="m5612.421 33.394h2.2l9.78 21.937h-3.2l-2.907-6.464h-9.306l-2.725 6.464h-3.209zm4.588 12.694-3.519-7.9-3.263 7.9z"/><path d="m5645.583 50.272v3.435a16.3 16.3 0 0 1 -7.931 1.874 12.214 12.214 0 0 1 -6.2-1.468 10.8 10.8 0 0 1 -4.028-4.044 10.98 10.98 0 0 1 -1.483-5.574 10.645 10.645 0 0 1 3.4-8.009 11.652 11.652 0 0 1 8.376-3.248 19.654 19.654 0 0 1 7.635 1.8v3.357a15.024 15.024 0 0 0 -7.479-2.186 8.646 8.646 0 0 0 -6.222 2.365 7.855 7.855 0 0 0 -2.474 5.925 7.776 7.776 0 0 0 2.435 5.9 8.685 8.685 0 0 0 6.23 2.311 14.128 14.128 0 0 0 7.741-2.438z"/><path d="m5656.388 33.394h2.195l9.78 21.937h-3.2l-2.906-6.464h-9.306l-2.725 6.464h-3.21zm4.588 12.694-3.519-7.9-3.263 7.9z"/><path d="m5670.783 55.3v-21.781h7.354a15.518 15.518 0 0 1 7.041 1.335 10.072 10.072 0 0 1 4.122 3.927 10.92 10.92 0 0 1 1.53 5.652 10.755 10.755 0 0 1 -6.948 10.055 11.013 11.013 0 0 1 -2.264.648 30.347 30.347 0 0 1 -3.934.164zm7.026-19h-3.9v16.22h4a15.949 15.949 0 0 0 3.638-.32 8.546 8.546 0 0 0 2.163-.812 7.388 7.388 0 0 0 1.584-1.21 8.074 8.074 0 0 0 2.311-5.917 7.486 7.486 0 0 0 -2.373-5.73 7.6 7.6 0 0 0 -2.006-1.358 8.421 8.421 0 0 0 -2.147-.7 21.884 21.884 0 0 0 -3.27-.173z"/><path d="m5694.733 33.519h12.367v2.781h-9.243v6.65h8.931v2.794h-8.931v6.776h9.54v2.78h-12.663z"/><path d="m5728.068 33.519h2.919v21.812h-3.138v-16.972l-6.706 8.431h-.578l-6.784-8.431v16.972h-3.122v-21.812h2.956l7.248 8.958z"/><path d="m5748.805 33.519h3.791l-8.057 10.274v11.538h-3.2v-11.538l-8.057-10.274h3.77l5.837 7.52z"/></g></g></svg>